G04 Layer_Color=8388736*
%FSLAX25Y25*%
%MOIN*%
G70*
G01*
G75*
%ADD47R,0.03950X0.04343*%
%ADD48R,0.13202X0.13202*%
%ADD49R,0.01824X0.04580*%
%ADD50R,0.04580X0.01824*%
%ADD51R,0.04343X0.03556*%
%ADD52R,0.04343X0.03950*%
%ADD53R,0.03162X0.04737*%
%ADD54R,0.03556X0.04343*%
%ADD55R,0.04934X0.04737*%
%ADD56R,0.24422X0.24422*%
%ADD57R,0.04343X0.04343*%
%ADD58R,0.06312X0.02375*%
%ADD59R,0.07099X0.09068*%
%ADD60R,0.08280X0.07886*%
%ADD61R,0.08280X0.08280*%
%ADD62R,0.02768X0.03162*%
%ADD63R,0.04737X0.03162*%
%ADD64R,0.07493X0.05131*%
%ADD65R,0.01778X0.02565*%
%ADD66R,0.02565X0.01778*%
%ADD67C,0.10800*%
%ADD68O,0.07800X0.13800*%
%ADD69C,0.07800*%
%ADD70R,0.06700X0.05100*%
%ADD71C,0.13300*%
%ADD72R,0.05100X0.06700*%
%ADD73C,0.03950*%
%ADD74C,0.04737*%
%ADD75C,0.06706*%
%ADD76C,0.03800*%
%ADD77C,0.03200*%
D47*
X271244Y457200D02*
D03*
X276756D02*
D03*
X271244Y449000D02*
D03*
X276756D02*
D03*
X350512Y472500D02*
D03*
X345000D02*
D03*
X350756Y485000D02*
D03*
X345244D02*
D03*
X360256Y520000D02*
D03*
X354744D02*
D03*
X236744Y377000D02*
D03*
X242256D02*
D03*
X369256Y313000D02*
D03*
X363744D02*
D03*
D48*
X283000Y428000D02*
D03*
D49*
X288906Y418650D02*
D03*
X286937D02*
D03*
X284968D02*
D03*
X283000D02*
D03*
X281031D02*
D03*
X279063D02*
D03*
X277095D02*
D03*
Y437350D02*
D03*
X279063D02*
D03*
X281031D02*
D03*
X283000D02*
D03*
X284968D02*
D03*
X286937D02*
D03*
X288906D02*
D03*
D50*
X273650Y422094D02*
D03*
Y424063D02*
D03*
Y426031D02*
D03*
Y428000D02*
D03*
Y429969D02*
D03*
Y431937D02*
D03*
Y433906D02*
D03*
X292350D02*
D03*
Y431937D02*
D03*
Y429969D02*
D03*
Y428000D02*
D03*
Y426031D02*
D03*
Y424063D02*
D03*
Y422094D02*
D03*
D51*
X278000Y478000D02*
D03*
Y483906D02*
D03*
X278500Y498000D02*
D03*
Y492095D02*
D03*
X254000Y536000D02*
D03*
Y530094D02*
D03*
X370000Y355047D02*
D03*
Y360953D02*
D03*
X370000Y381594D02*
D03*
Y387500D02*
D03*
Y408595D02*
D03*
Y414500D02*
D03*
X367500Y328953D02*
D03*
Y323047D02*
D03*
D52*
X268500Y484000D02*
D03*
Y489512D02*
D03*
X304800Y427244D02*
D03*
Y432756D02*
D03*
X313500Y427244D02*
D03*
Y432756D02*
D03*
X305000Y489000D02*
D03*
Y494512D02*
D03*
X376000Y336000D02*
D03*
Y330488D02*
D03*
X256000Y357744D02*
D03*
Y363256D02*
D03*
X377000Y319756D02*
D03*
Y314244D02*
D03*
D53*
X347260Y497587D02*
D03*
X351000D02*
D03*
X354740D02*
D03*
Y508413D02*
D03*
X347260D02*
D03*
D54*
X269953Y400500D02*
D03*
X264047D02*
D03*
X264595Y406000D02*
D03*
X270500D02*
D03*
X242847Y328500D02*
D03*
X248753D02*
D03*
X261753Y322500D02*
D03*
X255847D02*
D03*
X261753Y328500D02*
D03*
X255847D02*
D03*
X274953Y313000D02*
D03*
X269047D02*
D03*
X274905Y319000D02*
D03*
X269000D02*
D03*
X274453Y334000D02*
D03*
X268547D02*
D03*
X364453Y354000D02*
D03*
X358547D02*
D03*
X274406Y350000D02*
D03*
X268500D02*
D03*
X274000Y344500D02*
D03*
X268094D02*
D03*
X314453Y460500D02*
D03*
X308547D02*
D03*
D55*
X275000Y383276D02*
D03*
X271063Y392724D02*
D03*
X278937D02*
D03*
X258000Y383776D02*
D03*
X254063Y393224D02*
D03*
X261937D02*
D03*
D56*
X315500Y339500D02*
D03*
D57*
X281114Y309051D02*
D03*
Y314051D02*
D03*
Y319051D02*
D03*
Y324051D02*
D03*
Y329051D02*
D03*
Y334051D02*
D03*
Y339051D02*
D03*
Y344051D02*
D03*
Y349051D02*
D03*
Y354051D02*
D03*
Y359051D02*
D03*
Y364051D02*
D03*
Y369051D02*
D03*
Y374051D02*
D03*
X294122Y379917D02*
D03*
X299122D02*
D03*
X304122D02*
D03*
X309122D02*
D03*
X314122D02*
D03*
X319122D02*
D03*
X324122D02*
D03*
X329122D02*
D03*
X334122D02*
D03*
X339122D02*
D03*
X352114Y374051D02*
D03*
Y369051D02*
D03*
Y364051D02*
D03*
Y359051D02*
D03*
Y354051D02*
D03*
Y349051D02*
D03*
Y344051D02*
D03*
Y339051D02*
D03*
Y334051D02*
D03*
Y329051D02*
D03*
Y324051D02*
D03*
Y319051D02*
D03*
Y314051D02*
D03*
Y309051D02*
D03*
D58*
X246539Y436327D02*
D03*
Y433768D02*
D03*
Y431209D02*
D03*
Y428650D02*
D03*
Y426090D02*
D03*
D59*
X245949Y419004D02*
D03*
Y443413D02*
D03*
D60*
X236500Y446169D02*
D03*
Y416248D02*
D03*
D61*
Y436917D02*
D03*
Y425500D02*
D03*
D62*
X347500Y520469D02*
D03*
Y516532D02*
D03*
D63*
X297413Y484260D02*
D03*
Y488000D02*
D03*
Y491740D02*
D03*
X286587D02*
D03*
Y484260D02*
D03*
D64*
X387500Y315185D02*
D03*
Y325815D02*
D03*
D65*
X239032Y356887D02*
D03*
X241000D02*
D03*
X242969D02*
D03*
X239032Y366000D02*
D03*
X241000D02*
D03*
X242969D02*
D03*
D66*
X246512Y358364D02*
D03*
Y360332D02*
D03*
Y362301D02*
D03*
Y364269D02*
D03*
X235488D02*
D03*
Y362301D02*
D03*
Y360332D02*
D03*
Y358364D02*
D03*
D67*
X286250Y621500D02*
D03*
X338750D02*
D03*
Y561500D02*
D03*
X286250D02*
D03*
D68*
X282500Y604000D02*
D03*
X264800D02*
D03*
X282500Y579000D02*
D03*
X264800D02*
D03*
D69*
X352500Y601500D02*
D03*
Y591500D02*
D03*
Y581500D02*
D03*
X322500Y551500D02*
D03*
X312500D02*
D03*
X302500D02*
D03*
D70*
X287600Y460500D02*
D03*
Y454500D02*
D03*
X299500D02*
D03*
Y460500D02*
D03*
D71*
X265300Y556000D02*
D03*
X359000D02*
D03*
D72*
X277500Y519000D02*
D03*
X271500D02*
D03*
Y507100D02*
D03*
X277500D02*
D03*
X259500Y519000D02*
D03*
X253500D02*
D03*
Y507100D02*
D03*
X259500D02*
D03*
D73*
X384500Y363000D02*
D03*
Y353000D02*
D03*
X384000Y390500D02*
D03*
Y380500D02*
D03*
X384500Y416000D02*
D03*
Y406000D02*
D03*
D74*
X387500Y445126D02*
D03*
Y453000D02*
D03*
D75*
X327000Y439134D02*
D03*
Y460000D02*
D03*
D76*
X389000Y600500D02*
D03*
Y593000D02*
D03*
Y585500D02*
D03*
D77*
X313000Y329500D02*
D03*
X317000D02*
D03*
X320500D02*
D03*
X324500D02*
D03*
X322000Y349500D02*
D03*
X310000D02*
D03*
X306000D02*
D03*
X314000D02*
D03*
X318000D02*
D03*
X325500D02*
D03*
X309500Y329500D02*
D03*
X306000D02*
D03*
X360256Y529000D02*
D03*
X267000Y461500D02*
D03*
X257196Y351804D02*
D03*
X261000Y349500D02*
D03*
X280000Y411000D02*
D03*
X285000Y412000D02*
D03*
X271500Y367000D02*
D03*
X261500Y359000D02*
D03*
X345705Y386500D02*
D03*
X263500Y489500D02*
D03*
X253000D02*
D03*
X363500Y360500D02*
D03*
X346500Y358500D02*
D03*
X363500Y366500D02*
D03*
X342500Y338000D02*
D03*
X256500Y335500D02*
D03*
X249000Y340500D02*
D03*
Y347000D02*
D03*
X252500Y350000D02*
D03*
X360000Y447000D02*
D03*
X358000Y364500D02*
D03*
X354000Y460000D02*
D03*
X357000Y475500D02*
D03*
X247000Y547000D02*
D03*
X305000Y482000D02*
D03*
X285000Y478000D02*
D03*
X319000Y473000D02*
D03*
X236744Y386744D02*
D03*
X358000Y308500D02*
D03*
X391000Y336000D02*
D03*
X382000Y342000D02*
D03*
X319756Y427244D02*
D03*
X254909Y426090D02*
D03*
X360500Y334000D02*
D03*
X363500Y339000D02*
D03*
X360500Y344000D02*
D03*
X258500Y340000D02*
D03*
X250500Y314000D02*
D03*
X249500Y372000D02*
D03*
X233500Y369000D02*
D03*
X275000Y400000D02*
D03*
X244000Y323000D02*
D03*
X243500Y337000D02*
D03*
X275000Y413500D02*
D03*
X351000Y491415D02*
D03*
X260291Y431209D02*
D03*
X256768Y433768D02*
D03*
X300000Y429000D02*
D03*
X298500Y434000D02*
D03*
M02*
