M48
;Layer_Color=9474304
;FILE_FORMAT=2:5
INCH,LZ
;TYPE=PLATED
T1F00S00C0.01200
T2F00S00C0.02000
T3F00S00C0.02362
T4F00S00C0.02756
T5F00S00C0.03500
T6F00S00C0.04400
T7F00S00C0.04724
T8F00S00C0.05500
;TYPE=NON_PLATED
T9F00S00C0.12500
%
T01
X0358Y03085
X03095Y03295
X0306
Y03495
X031
X0261
X0257196Y0351804
X02525Y035
X0249Y0347
Y03405
X02435Y0337
X02565Y03355
X02585Y034
X02615Y0359
X02715Y0367
X02495Y0372
X02335Y0369
X0236744Y0386744
X0275Y04
Y04135
X028Y0411
X0285Y0412
X03Y0429
X02985Y0434
X0260291Y0431209
X0256768Y0433768
X0254909Y042609
X0267Y04615
X0244Y0323
X02505Y0314
X0313Y03295
X0317
X03205
X03245
X03255Y03495
X0322
X0318
X0314
X03425Y0338
X03605Y0334
X03635Y0339
X03605Y0344
X03635Y03605
Y03665
X0358Y03645
X03465Y03585
X0345705Y03865
X0319756Y0427244
X036Y0447
X0354Y046
X0382Y0342
X0391Y0336
X0357Y04755
X0351Y0491415
X0360256Y0529
X0319Y0473
X0305Y0482
X0285Y0478
X02635Y04895
X0253
X0247Y0547
T02
X0389Y05855
Y0593
Y06005
T03
X03845Y0353
Y0363
X0384Y03805
Y03905
X03845Y0406
Y0416
T04
X03875Y0445126
Y0453
T05
X03125Y05515
X03225
X03525Y05815
Y05915
Y06015
X03025Y05515
T06
X02648Y0579
X02825
Y0604
X02648
T07
X0327Y0439134
Y046
T08
X033875Y05615
Y06215
X028625
Y05615
T09
X0359Y0556
X02653
M30
