G04 Layer_Color=65535*
%FSLAX25Y25*%
%MOIN*%
G70*
G01*
G75*
%ADD30C,0.00800*%
%ADD31C,0.00787*%
%ADD43C,0.01000*%
%ADD44C,0.00000*%
%ADD45C,0.00984*%
%ADD46C,0.00500*%
D30*
X255699Y656899D02*
X254700D01*
X255200D01*
Y654400D01*
X254700Y653900D01*
X254200D01*
X253700Y654400D01*
X258698Y656399D02*
X258198Y656899D01*
X257199D01*
X256699Y656399D01*
Y655899D01*
X257199Y655400D01*
X258198D01*
X258698Y654900D01*
Y654400D01*
X258198Y653900D01*
X257199D01*
X256699Y654400D01*
X259698Y653900D02*
X260698D01*
X260198D01*
Y656899D01*
X259698Y656399D01*
X302001Y559000D02*
X304000D01*
X305000Y560000D01*
X304000Y560999D01*
X302001D01*
X303501Y561999D02*
Y563998D01*
X302501Y562999D02*
X304500D01*
X312001Y559000D02*
X314000D01*
X315000Y560000D01*
X314000Y560999D01*
X312001D01*
X322001Y559000D02*
X324000D01*
X325000Y560000D01*
X324000Y560999D01*
X322001D01*
X323500Y561999D02*
Y563998D01*
X345000Y581001D02*
Y584000D01*
Y582501D01*
X343001D01*
Y581001D01*
Y584000D01*
X342001Y582501D02*
X340002D01*
X341001Y581501D02*
Y583500D01*
X345000Y591001D02*
Y594000D01*
Y592500D01*
X343001D01*
Y591001D01*
Y594000D01*
X345000Y601001D02*
Y604000D01*
Y602500D01*
X343001D01*
Y601001D01*
Y604000D01*
X342001Y602500D02*
X340002D01*
X272001Y586500D02*
X275000D01*
Y587999D01*
X274500Y588499D01*
X274000D01*
X273500Y587999D01*
Y586500D01*
Y587999D01*
X273001Y588499D01*
X272501D01*
X272001Y587999D01*
Y586500D01*
X273500Y589499D02*
Y591498D01*
X272501Y590499D02*
X274500D01*
X289501Y586500D02*
X292500D01*
Y587999D01*
X292000Y588499D01*
X291500D01*
X291001Y587999D01*
Y586500D01*
Y587999D01*
X290501Y588499D01*
X290001D01*
X289501Y587999D01*
Y586500D01*
X291001Y589499D02*
Y591498D01*
X284500Y468499D02*
Y465500D01*
X285999D01*
X286499Y466000D01*
Y467999D01*
X285999Y468499D01*
X284500D01*
X289498D02*
X287499D01*
Y466999D01*
X288499Y467499D01*
X288999D01*
X289498Y466999D01*
Y466000D01*
X288999Y465500D01*
X287999D01*
X287499Y466000D01*
X273499Y463999D02*
X273000Y464499D01*
X272000D01*
X271500Y463999D01*
Y462000D01*
X272000Y461500D01*
X273000D01*
X273499Y462000D01*
X274499Y461500D02*
X275499D01*
X274999D01*
Y464499D01*
X274499Y463999D01*
X276998D02*
X277498Y464499D01*
X278498D01*
X278998Y463999D01*
Y463499D01*
X278498Y462999D01*
X277998D01*
X278498D01*
X278998Y462500D01*
Y462000D01*
X278498Y461500D01*
X277498D01*
X276998Y462000D01*
X262499Y451499D02*
X262000Y451999D01*
X261000D01*
X260500Y451499D01*
Y449500D01*
X261000Y449000D01*
X262000D01*
X262499Y449500D01*
X263499Y449000D02*
X264499D01*
X263999D01*
Y451999D01*
X263499Y451499D01*
X267498Y449000D02*
Y451999D01*
X265998Y450499D01*
X267998D01*
X266000Y439499D02*
Y437000D01*
X266500Y436500D01*
X267499D01*
X267999Y437000D01*
Y439499D01*
X270498Y436500D02*
Y439499D01*
X268999Y437999D01*
X270998D01*
X273000Y486500D02*
Y489499D01*
X274500D01*
X274999Y488999D01*
Y487999D01*
X274500Y487500D01*
X273000D01*
X274000D02*
X274999Y486500D01*
X275999D02*
X276999D01*
X276499D01*
Y489499D01*
X275999Y488999D01*
X278498Y486500D02*
X279498D01*
X278998D01*
Y489499D01*
X278498Y488999D01*
X260499Y492499D02*
X259999Y492999D01*
X259000D01*
X258500Y492499D01*
Y490500D01*
X259000Y490000D01*
X259999D01*
X260499Y490500D01*
X263498Y492999D02*
X262499Y492499D01*
X261499Y491500D01*
Y490500D01*
X261999Y490000D01*
X262999D01*
X263498Y490500D01*
Y491000D01*
X262999Y491500D01*
X261499D01*
X267000Y496500D02*
Y499499D01*
X268499D01*
X268999Y498999D01*
Y497999D01*
X268499Y497500D01*
X267000D01*
X268000D02*
X268999Y496500D01*
X269999D02*
X270999D01*
X270499D01*
Y499499D01*
X269999Y498999D01*
X274498Y496500D02*
X272498D01*
X274498Y498499D01*
Y498999D01*
X273998Y499499D01*
X272998D01*
X272498Y498999D01*
X251000Y540500D02*
Y543499D01*
X252500D01*
X252999Y542999D01*
Y541999D01*
X252500Y541500D01*
X251000D01*
X252000D02*
X252999Y540500D01*
X253999D02*
X254999D01*
X254499D01*
Y543499D01*
X253999Y542999D01*
X256498Y543499D02*
X258498D01*
Y542999D01*
X256498Y541000D01*
Y540500D01*
X265000Y526499D02*
Y523500D01*
X266499D01*
X266999Y524000D01*
Y525999D01*
X266499Y526499D01*
X265000D01*
X269498Y523500D02*
Y526499D01*
X267999Y525000D01*
X269998D01*
X244500Y525999D02*
Y523000D01*
X246000D01*
X246499Y523500D01*
Y525499D01*
X246000Y525999D01*
X244500D01*
X249498D02*
X248499Y525499D01*
X247499Y524500D01*
Y523500D01*
X247999Y523000D01*
X248998D01*
X249498Y523500D01*
Y524000D01*
X248998Y524500D01*
X247499D01*
X337500Y509499D02*
Y507000D01*
X338000Y506500D01*
X339000D01*
X339499Y507000D01*
Y509499D01*
X342498D02*
X340499D01*
Y508000D01*
X341499Y508499D01*
X341999D01*
X342498Y508000D01*
Y507000D01*
X341999Y506500D01*
X340999D01*
X340499Y507000D01*
X253000Y399000D02*
Y401999D01*
X254500D01*
X254999Y401499D01*
Y400499D01*
X254500Y400000D01*
X253000D01*
X254000D02*
X254999Y399000D01*
X255999D02*
X256999D01*
X256499D01*
Y401999D01*
X255999Y401499D01*
X258498Y399500D02*
X258998Y399000D01*
X259998D01*
X260498Y399500D01*
Y401499D01*
X259998Y401999D01*
X258998D01*
X258498Y401499D01*
Y400999D01*
X258998Y400499D01*
X260498D01*
X253594Y404500D02*
Y407499D01*
X255094D01*
X255594Y406999D01*
Y406000D01*
X255094Y405500D01*
X253594D01*
X254594D02*
X255594Y404500D01*
X256593D02*
X257593D01*
X257093D01*
Y407499D01*
X256593Y406999D01*
X259093D02*
X259593Y407499D01*
X260592D01*
X261092Y406999D01*
Y406499D01*
X260592Y406000D01*
X261092Y405500D01*
Y405000D01*
X260592Y404500D01*
X259593D01*
X259093Y405000D01*
Y405500D01*
X259593Y406000D01*
X259093Y406499D01*
Y406999D01*
X259593Y406000D02*
X260592D01*
X285562Y387224D02*
Y389224D01*
X285063Y389723D01*
X284063D01*
X283563Y389224D01*
Y387224D01*
X284063Y386724D01*
X285063D01*
X284563Y387724D02*
X285562Y386724D01*
X285063D02*
X285562Y387224D01*
X286562Y386724D02*
X287562D01*
X287062D01*
Y389723D01*
X286562Y389224D01*
X246499Y388000D02*
Y389999D01*
X246000Y390499D01*
X245000D01*
X244500Y389999D01*
Y388000D01*
X245000Y387500D01*
X246000D01*
X245500Y388500D02*
X246499Y387500D01*
X246000D02*
X246499Y388000D01*
X249498Y387500D02*
X247499D01*
X249498Y389499D01*
Y389999D01*
X248998Y390499D01*
X247999D01*
X247499Y389999D01*
X238800Y332000D02*
Y334999D01*
X240300D01*
X240799Y334499D01*
Y333500D01*
X240300Y333000D01*
X238800D01*
X239800D02*
X240799Y332000D01*
X241799D02*
X242799D01*
X242299D01*
Y334999D01*
X241799Y334499D01*
X244298D02*
X244798Y334999D01*
X245798D01*
X246298Y334499D01*
Y332500D01*
X245798Y332000D01*
X244798D01*
X244298Y332500D01*
Y334499D01*
X247800Y322000D02*
Y324999D01*
X249300D01*
X249799Y324499D01*
Y323499D01*
X249300Y323000D01*
X247800D01*
X248800D02*
X249799Y322000D01*
X250799Y324499D02*
X251299Y324999D01*
X252298D01*
X252798Y324499D01*
Y323999D01*
X252298Y323499D01*
X252798Y323000D01*
Y322500D01*
X252298Y322000D01*
X251299D01*
X250799Y322500D01*
Y323000D01*
X251299Y323499D01*
X250799Y323999D01*
Y324499D01*
X251299Y323499D02*
X252298D01*
X252300Y332000D02*
Y334999D01*
X253800D01*
X254299Y334499D01*
Y333500D01*
X253800Y333000D01*
X252300D01*
X253300D02*
X254299Y332000D01*
X255299Y332500D02*
X255799Y332000D01*
X256799D01*
X257298Y332500D01*
Y334499D01*
X256799Y334999D01*
X255799D01*
X255299Y334499D01*
Y333999D01*
X255799Y333500D01*
X257298D01*
X296000Y365499D02*
Y363000D01*
X296500Y362500D01*
X297499D01*
X297999Y363000D01*
Y365499D01*
X298999Y362500D02*
X299999D01*
X299499D01*
Y365499D01*
X298999Y364999D01*
X260000Y309000D02*
Y311999D01*
X261500D01*
X261999Y311499D01*
Y310500D01*
X261500Y310000D01*
X260000D01*
X261000D02*
X261999Y309000D01*
X262999D02*
X263999D01*
X263499D01*
Y311999D01*
X262999Y311499D01*
X259500Y315500D02*
Y318499D01*
X260999D01*
X261499Y317999D01*
Y317000D01*
X260999Y316500D01*
X259500D01*
X260500D02*
X261499Y315500D01*
X264498D02*
X262499D01*
X264498Y317499D01*
Y317999D01*
X263999Y318499D01*
X262999D01*
X262499Y317999D01*
X260500Y336000D02*
Y338999D01*
X262000D01*
X262499Y338499D01*
Y337499D01*
X262000Y337000D01*
X260500D01*
X261500D02*
X262499Y336000D01*
X263499Y338499D02*
X263999Y338999D01*
X264999D01*
X265498Y338499D01*
Y337999D01*
X264999Y337499D01*
X264499D01*
X264999D01*
X265498Y337000D01*
Y336500D01*
X264999Y336000D01*
X263999D01*
X263499Y336500D01*
X367500Y347500D02*
Y350499D01*
X369000D01*
X369499Y349999D01*
Y349000D01*
X369000Y348500D01*
X367500D01*
X368500D02*
X369499Y347500D01*
X372498Y350499D02*
X371499Y349999D01*
X370499Y349000D01*
Y348000D01*
X370999Y347500D01*
X371999D01*
X372498Y348000D01*
Y348500D01*
X371999Y349000D01*
X370499D01*
X260500Y352500D02*
Y355499D01*
X262000D01*
X262499Y354999D01*
Y353999D01*
X262000Y353500D01*
X260500D01*
X261500D02*
X262499Y352500D01*
X265498Y355499D02*
X263499D01*
Y353999D01*
X264499Y354499D01*
X264999D01*
X265498Y353999D01*
Y353000D01*
X264999Y352500D01*
X263999D01*
X263499Y353000D01*
X260000Y346000D02*
Y348999D01*
X261500D01*
X261999Y348499D01*
Y347499D01*
X261500Y347000D01*
X260000D01*
X261000D02*
X261999Y346000D01*
X264498D02*
Y348999D01*
X262999Y347499D01*
X264998D01*
X305199Y440199D02*
X304699Y440699D01*
X303700D01*
X303200Y440199D01*
Y438200D01*
X303700Y437700D01*
X304699D01*
X305199Y438200D01*
X306199Y437700D02*
X307199D01*
X306699D01*
Y440699D01*
X306199Y440199D01*
X310698Y437700D02*
X308698D01*
X310698Y439699D01*
Y440199D01*
X310198Y440699D01*
X309198D01*
X308698Y440199D01*
X313899D02*
X313400Y440699D01*
X312400D01*
X311900Y440199D01*
Y438200D01*
X312400Y437700D01*
X313400D01*
X313899Y438200D01*
X314899Y437700D02*
X315899D01*
X315399D01*
Y440699D01*
X314899Y440199D01*
X317398Y437700D02*
X318398D01*
X317898D01*
Y440699D01*
X317398Y440199D01*
X375000Y374099D02*
Y371100D01*
X376500D01*
X376999Y371600D01*
Y373599D01*
X376500Y374099D01*
X375000D01*
X377999Y371100D02*
X378999D01*
X378499D01*
Y374099D01*
X377999Y373599D01*
X374500Y401599D02*
Y398600D01*
X375999D01*
X376499Y399100D01*
Y401099D01*
X375999Y401599D01*
X374500D01*
X379498Y398600D02*
X377499D01*
X379498Y400599D01*
Y401099D01*
X378998Y401599D01*
X377999D01*
X377499Y401099D01*
X375000Y427099D02*
Y424100D01*
X376500D01*
X376999Y424600D01*
Y426599D01*
X376500Y427099D01*
X375000D01*
X377999Y426599D02*
X378499Y427099D01*
X379499D01*
X379998Y426599D01*
Y426099D01*
X379499Y425599D01*
X378999D01*
X379499D01*
X379998Y425100D01*
Y424600D01*
X379499Y424100D01*
X378499D01*
X377999Y424600D01*
X383099Y466999D02*
X382100D01*
X382599D01*
Y464500D01*
X382100Y464000D01*
X381600D01*
X381100Y464500D01*
X384099Y464000D02*
X385099D01*
X384599D01*
Y466999D01*
X384099Y466499D01*
X368400Y365700D02*
Y368699D01*
X369900D01*
X370399Y368199D01*
Y367199D01*
X369900Y366700D01*
X368400D01*
X369400D02*
X370399Y365700D01*
X371399D02*
X372399D01*
X371899D01*
Y368699D01*
X371399Y368199D01*
X375398Y365700D02*
Y368699D01*
X373898Y367199D01*
X375898D01*
X368400Y392247D02*
Y395246D01*
X369900D01*
X370399Y394746D01*
Y393747D01*
X369900Y393247D01*
X368400D01*
X369400D02*
X370399Y392247D01*
X371399D02*
X372399D01*
X371899D01*
Y395246D01*
X371399Y394746D01*
X375898Y395246D02*
X373898D01*
Y393747D01*
X374898Y394247D01*
X375398D01*
X375898Y393747D01*
Y392747D01*
X375398Y392247D01*
X374398D01*
X373898Y392747D01*
X368400Y419247D02*
Y422246D01*
X369900D01*
X370399Y421746D01*
Y420747D01*
X369900Y420247D01*
X368400D01*
X369400D02*
X370399Y419247D01*
X371399D02*
X372399D01*
X371899D01*
Y422246D01*
X371399Y421746D01*
X375898Y422246D02*
X374898Y421746D01*
X373898Y420747D01*
Y419747D01*
X374398Y419247D01*
X375398D01*
X375898Y419747D01*
Y420247D01*
X375398Y420747D01*
X373898D01*
X305399Y501999D02*
X304900Y502499D01*
X303900D01*
X303400Y501999D01*
Y500000D01*
X303900Y499500D01*
X304900D01*
X305399Y500000D01*
X306399Y502499D02*
X308398D01*
Y501999D01*
X306399Y500000D01*
Y499500D01*
X307400Y465700D02*
Y468699D01*
X308899D01*
X309399Y468199D01*
Y467200D01*
X308899Y466700D01*
X307400D01*
X308400D02*
X309399Y465700D01*
X310399D02*
X311399D01*
X310899D01*
Y468699D01*
X310399Y468199D01*
X312898D02*
X313398Y468699D01*
X314398D01*
X314898Y468199D01*
Y467699D01*
X314398Y467200D01*
X313898D01*
X314398D01*
X314898Y466700D01*
Y466200D01*
X314398Y465700D01*
X313398D01*
X312898Y466200D01*
X345599Y480199D02*
X345099Y480699D01*
X344100D01*
X343600Y480199D01*
Y478200D01*
X344100Y477700D01*
X345099D01*
X345599Y478200D01*
X346599Y480199D02*
X347099Y480699D01*
X348098D01*
X348598Y480199D01*
Y479699D01*
X348098Y479200D01*
X348598Y478700D01*
Y478200D01*
X348098Y477700D01*
X347099D01*
X346599Y478200D01*
Y478700D01*
X347099Y479200D01*
X346599Y479699D01*
Y480199D01*
X347099Y479200D02*
X348098D01*
X345899Y492699D02*
X345399Y493199D01*
X344400D01*
X343900Y492699D01*
Y490700D01*
X344400Y490200D01*
X345399D01*
X345899Y490700D01*
X346899D02*
X347399Y490200D01*
X348398D01*
X348898Y490700D01*
Y492699D01*
X348398Y493199D01*
X347399D01*
X346899Y492699D01*
Y492199D01*
X347399Y491700D01*
X348898D01*
X355399Y527699D02*
X354900Y528199D01*
X353900D01*
X353400Y527699D01*
Y525700D01*
X353900Y525200D01*
X354900D01*
X355399Y525700D01*
X356399Y525200D02*
X357399D01*
X356899D01*
Y528199D01*
X356399Y527699D01*
X358898D02*
X359398Y528199D01*
X360398D01*
X360898Y527699D01*
Y525700D01*
X360398Y525200D01*
X359398D01*
X358898Y525700D01*
Y527699D01*
X321300Y466200D02*
Y469199D01*
X322799D01*
X323299Y468699D01*
Y467699D01*
X322799Y467200D01*
X321300D01*
X324299Y469199D02*
Y466200D01*
X325799D01*
X326298Y466700D01*
Y467200D01*
X325799Y467699D01*
X324299D01*
X325799D01*
X326298Y468199D01*
Y468699D01*
X325799Y469199D01*
X324299D01*
X329297Y466200D02*
X327298D01*
X329297Y468199D01*
Y468699D01*
X328798Y469199D01*
X327798D01*
X327298Y468699D01*
X229199Y455916D02*
X228200D01*
X228699D01*
Y453417D01*
X228200Y452917D01*
X227700D01*
X227200Y453417D01*
X230199Y452917D02*
X231199D01*
X230699D01*
Y455916D01*
X230199Y455416D01*
X346700Y527999D02*
Y525000D01*
X348699D01*
X349699D02*
X350699D01*
X350199D01*
Y527999D01*
X349699Y527499D01*
X284400Y500999D02*
Y498500D01*
X284900Y498000D01*
X285899D01*
X286399Y498500D01*
Y500999D01*
X287399Y500499D02*
X287899Y500999D01*
X288898D01*
X289398Y500499D01*
Y499999D01*
X288898Y499500D01*
X288399D01*
X288898D01*
X289398Y499000D01*
Y498500D01*
X288898Y498000D01*
X287899D01*
X287399Y498500D01*
X376399Y343499D02*
X375900Y343999D01*
X374900D01*
X374400Y343499D01*
Y341500D01*
X374900Y341000D01*
X375900D01*
X376399Y341500D01*
X379398Y343999D02*
X377399D01*
Y342499D01*
X378399Y342999D01*
X378899D01*
X379398Y342499D01*
Y341500D01*
X378899Y341000D01*
X377899D01*
X377399Y341500D01*
X365900Y333700D02*
Y336699D01*
X367400D01*
X367899Y336199D01*
Y335199D01*
X367400Y334700D01*
X365900D01*
X366900D02*
X367899Y333700D01*
X368899Y336699D02*
X370898D01*
Y336199D01*
X368899Y334200D01*
Y333700D01*
X237399Y384699D02*
X236899Y385199D01*
X235900D01*
X235400Y384699D01*
Y382700D01*
X235900Y382200D01*
X236899D01*
X237399Y382700D01*
X239898Y382200D02*
Y385199D01*
X238399Y383699D01*
X240398D01*
X256399Y370699D02*
X255900Y371199D01*
X254900D01*
X254400Y370699D01*
Y368700D01*
X254900Y368200D01*
X255900D01*
X256399Y368700D01*
X257399Y370699D02*
X257899Y371199D01*
X258898D01*
X259398Y370699D01*
Y370199D01*
X258898Y369700D01*
X258399D01*
X258898D01*
X259398Y369200D01*
Y368700D01*
X258898Y368200D01*
X257899D01*
X257399Y368700D01*
X381000Y610600D02*
Y613599D01*
X382500D01*
X382999Y613099D01*
Y612100D01*
X382500Y611600D01*
X381000D01*
X383999Y613599D02*
Y610600D01*
X385498D01*
X385998Y611100D01*
Y611600D01*
X385498Y612100D01*
X383999D01*
X385498D01*
X385998Y612599D01*
Y613099D01*
X385498Y613599D01*
X383999D01*
X386998Y610600D02*
X387998D01*
X387498D01*
Y613599D01*
X386998Y613099D01*
X381001Y583000D02*
X384000D01*
Y584500D01*
X383500Y584999D01*
X383000D01*
X382501Y584500D01*
Y583000D01*
Y584500D01*
X382001Y584999D01*
X381501D01*
X381001Y584500D01*
Y583000D01*
X384000Y585999D02*
Y586999D01*
Y586499D01*
X381001D01*
X381501Y585999D01*
X381001Y591000D02*
X384000D01*
Y592499D01*
X383500Y592999D01*
X383000D01*
X382501Y592499D01*
Y591000D01*
Y592499D01*
X382001Y592999D01*
X381501D01*
X381001Y592499D01*
Y591000D01*
X384000Y595998D02*
Y593999D01*
X382001Y595998D01*
X381501D01*
X381001Y595499D01*
Y594499D01*
X381501Y593999D01*
Y600999D02*
X381001Y600499D01*
Y599500D01*
X381501Y599000D01*
X383500D01*
X384000Y599500D01*
Y600499D01*
X383500Y600999D01*
X382501D01*
Y600000D01*
X384000Y601999D02*
X381001D01*
X384000Y603998D01*
X381001D01*
Y604998D02*
X384000D01*
Y606498D01*
X383500Y606997D01*
X381501D01*
X381001Y606498D01*
Y604998D01*
X386399Y333899D02*
X385899Y334399D01*
X384900D01*
X384400Y333899D01*
Y331900D01*
X384900Y331400D01*
X385899D01*
X386399Y331900D01*
X387399Y331400D02*
X388399D01*
X387899D01*
Y334399D01*
X387399Y333899D01*
X377399Y327199D02*
X376900Y327699D01*
X375900D01*
X375400Y327199D01*
Y325200D01*
X375900Y324700D01*
X376900D01*
X377399Y325200D01*
X380398Y324700D02*
X378399D01*
X380398Y326699D01*
Y327199D01*
X379899Y327699D01*
X378899D01*
X378399Y327199D01*
X364399Y321199D02*
X362400D01*
Y319700D01*
X363400D01*
X362400D01*
Y318200D01*
X365399D02*
X366399D01*
X365899D01*
Y321199D01*
X365399Y320699D01*
X234968Y373086D02*
Y370587D01*
X235468Y370087D01*
X236468D01*
X236968Y370587D01*
Y373086D01*
X239967Y370087D02*
X237967D01*
X239967Y372087D01*
Y372587D01*
X239467Y373086D01*
X238467D01*
X237967Y372587D01*
D31*
X276622Y480165D02*
Y481740D01*
X279378Y480165D02*
Y481740D01*
X279878Y494260D02*
Y495835D01*
X277122Y494260D02*
Y495835D01*
X255378Y532260D02*
Y533835D01*
X252622Y532260D02*
Y533835D01*
X344898Y501031D02*
Y504969D01*
X357102Y501031D02*
Y504969D01*
X344898Y501031D02*
X357102D01*
X344898Y504969D02*
X357102D01*
X266213Y399122D02*
X267787D01*
X266213Y401878D02*
X267787D01*
X266760Y407378D02*
X268335D01*
X266760Y404622D02*
X268335D01*
X269094Y385244D02*
X271358D01*
X269094D02*
Y389181D01*
X278642Y385244D02*
X280906D01*
Y389181D01*
X252095Y385744D02*
X254358D01*
X252095D02*
Y389681D01*
X261642Y385744D02*
X263906D01*
Y389681D01*
X245013Y329878D02*
X246587D01*
X245013Y327122D02*
X246587D01*
X258013Y321122D02*
X259587D01*
X258013Y323878D02*
X259587D01*
X258013Y327122D02*
X259587D01*
X258013Y329878D02*
X259587D01*
X271213Y311622D02*
X272787D01*
X271213Y314378D02*
X272787D01*
X271165Y317622D02*
X272740D01*
X271165Y320378D02*
X272740D01*
X270713Y332622D02*
X272287D01*
X270713Y335378D02*
X272287D01*
X360713Y352622D02*
X362287D01*
X360713Y355378D02*
X362287D01*
X270665Y348622D02*
X272240D01*
X270665Y351378D02*
X272240D01*
X270260Y343122D02*
X271835D01*
X270260Y345878D02*
X271835D01*
X368622Y357213D02*
Y358787D01*
X371378Y357213D02*
Y358787D01*
X368622Y383760D02*
Y385335D01*
X371378Y383760D02*
Y385335D01*
X368622Y410760D02*
Y412335D01*
X371378Y410760D02*
Y412335D01*
X310713Y459122D02*
X312287D01*
X310713Y461878D02*
X312287D01*
X346909Y514169D02*
X348091D01*
X290032Y481898D02*
X293969D01*
X290032Y494102D02*
X293969D01*
Y481898D02*
Y494102D01*
X290032Y481898D02*
Y494102D01*
X368878Y325213D02*
Y326787D01*
X366122Y325213D02*
Y326787D01*
X384547Y318925D02*
Y322075D01*
X390453Y318925D02*
Y322075D01*
D43*
X362500Y591500D02*
G03*
X362500Y591500I-50000J0D01*
G01*
X371600D02*
G03*
X371600Y591500I-59100J0D01*
G01*
X344508Y309551D02*
G03*
X344508Y309551I-394J0D01*
G01*
X394342Y358000D02*
G03*
X394342Y358000I-9843J0D01*
G01*
X393843Y385500D02*
G03*
X393843Y385500I-9843J0D01*
G01*
X394342Y411000D02*
G03*
X394342Y411000I-9843J0D01*
G01*
X244250Y358856D02*
G03*
X244250Y358856I-100J0D01*
G01*
X297500Y466500D02*
X301500D01*
X299500Y464500D02*
Y468500D01*
X283500Y505100D02*
Y509100D01*
X281500Y507100D02*
X285500D01*
X265500Y505100D02*
Y509100D01*
X263500Y507100D02*
X267500D01*
X379500Y352000D02*
Y354000D01*
X378500Y353000D02*
X380500D01*
X379000Y379500D02*
Y381500D01*
X378000Y380500D02*
X380000D01*
X379500Y405000D02*
Y407000D01*
X378500Y406000D02*
X380500D01*
X380807Y437449D02*
Y460677D01*
X387500Y435126D02*
Y439126D01*
X385500Y437126D02*
X389500D01*
X398524Y437449D02*
Y460677D01*
X321000Y436134D02*
Y462134D01*
X226854Y446957D02*
X246539D01*
Y415461D02*
Y446957D01*
X226854Y415461D02*
X246539D01*
X226854D02*
Y446957D01*
X385000Y597000D02*
X393000D01*
X385000Y589000D02*
X393000D01*
X385000Y604000D02*
X393000D01*
X385000Y582000D02*
Y604000D01*
Y582000D02*
X393000D01*
Y604000D01*
D44*
X296583Y422094D02*
G03*
X296583Y422094I-591J0D01*
G01*
D45*
X344406Y497587D02*
G03*
X344406Y497587I-492J0D01*
G01*
X297905Y480913D02*
G03*
X297905Y480913I-492J0D01*
G01*
D46*
X281114Y303051D02*
X352114D01*
X281114Y279551D02*
Y380051D01*
Y279551D02*
X352114D01*
Y380051D01*
X281114D02*
X352114D01*
X235105Y356551D02*
Y366394D01*
X246917D01*
X235094Y356494D02*
X246905D01*
Y366336D01*
M02*
