G04 Layer_Physical_Order=1*
G04 Layer_Color=255*
%FSLAX25Y25*%
%MOIN*%
G70*
G01*
G75*
%ADD10R,0.03150X0.03543*%
%ADD11R,0.12402X0.12402*%
%ADD12R,0.01024X0.03780*%
%ADD13R,0.03780X0.01024*%
%ADD14R,0.03543X0.02756*%
%ADD15R,0.03543X0.03150*%
%ADD16R,0.02362X0.03937*%
%ADD17R,0.02756X0.03543*%
%ADD18R,0.04134X0.03937*%
%ADD19R,0.23622X0.23622*%
%ADD20R,0.03543X0.03543*%
%ADD21R,0.05512X0.01575*%
%ADD22R,0.06299X0.08268*%
%ADD23R,0.07480X0.07086*%
%ADD24R,0.07480X0.07480*%
%ADD25R,0.01968X0.02362*%
%ADD26R,0.03937X0.02362*%
%ADD27R,0.06693X0.04331*%
%ADD28R,0.01378X0.02165*%
%ADD29R,0.02165X0.01378*%
%ADD30C,0.00800*%
%ADD31C,0.00787*%
%ADD32C,0.10000*%
%ADD33O,0.07000X0.13000*%
%ADD34C,0.07000*%
%ADD35R,0.05900X0.04300*%
%ADD36C,0.12500*%
%ADD37R,0.04300X0.05900*%
%ADD38C,0.03150*%
%ADD39C,0.03937*%
%ADD40C,0.05905*%
%ADD41C,0.03000*%
%ADD42C,0.02400*%
G36*
X393879Y306121D02*
X358345D01*
X358286Y306721D01*
X358702Y306804D01*
X359298Y307202D01*
X359696Y307798D01*
X359835Y308500D01*
X359696Y309202D01*
X359298Y309798D01*
X358702Y310196D01*
X358000Y310335D01*
X357298Y310196D01*
X357111Y310071D01*
X354910D01*
X354486Y310495D01*
X354486Y311423D01*
X354486Y312023D01*
Y313032D01*
X356526D01*
X357279Y312279D01*
X357610Y312058D01*
X358000Y311980D01*
X361569D01*
Y310628D01*
X365919D01*
Y315372D01*
X361569D01*
Y314020D01*
X358422D01*
X357670Y314772D01*
X357339Y314993D01*
X356949Y315071D01*
X354910D01*
X354486Y315495D01*
X354486Y316423D01*
X354486Y317023D01*
Y318032D01*
X357551D01*
X357941Y318109D01*
X358272Y318330D01*
X361721Y321779D01*
X361942Y322110D01*
X362020Y322500D01*
Y326078D01*
X363875Y327933D01*
X365128D01*
Y326975D01*
X369872D01*
Y327933D01*
X371453D01*
X371843Y328011D01*
X372174Y328232D01*
X373028Y329086D01*
X373628Y328838D01*
Y328313D01*
X378372D01*
Y332663D01*
X373628D01*
Y331508D01*
X372988D01*
X372598Y331430D01*
X372267Y331209D01*
X371030Y329972D01*
X369872D01*
Y330931D01*
X365128D01*
Y329972D01*
X363453D01*
X363063Y329895D01*
X362732Y329674D01*
X360279Y327221D01*
X360058Y326890D01*
X359980Y326500D01*
Y322922D01*
X357129Y320071D01*
X354910D01*
X354486Y320495D01*
X354486Y321423D01*
X354486Y322023D01*
Y326080D01*
X354486Y326423D01*
X354486Y327023D01*
Y331080D01*
X354486Y331423D01*
X354486Y332023D01*
Y332980D01*
X359016D01*
X359202Y332702D01*
X359798Y332304D01*
X360500Y332165D01*
X361202Y332304D01*
X361798Y332702D01*
X362196Y333298D01*
X362335Y334000D01*
X362196Y334702D01*
X361798Y335298D01*
X361202Y335696D01*
X360500Y335835D01*
X359798Y335696D01*
X359202Y335298D01*
X359016Y335020D01*
X354910D01*
X354486Y335444D01*
X354486Y336423D01*
X354486Y337023D01*
Y337980D01*
X362016D01*
X362202Y337702D01*
X362798Y337304D01*
X363500Y337165D01*
X364202Y337304D01*
X364798Y337702D01*
X365196Y338298D01*
X365335Y339000D01*
X365196Y339702D01*
X364798Y340298D01*
X364202Y340696D01*
X363500Y340835D01*
X362798Y340696D01*
X362202Y340298D01*
X362016Y340020D01*
X354910D01*
X354486Y340444D01*
X354486Y341423D01*
X354486Y342023D01*
Y342980D01*
X359016D01*
X359202Y342702D01*
X359798Y342304D01*
X360500Y342165D01*
X361202Y342304D01*
X361798Y342702D01*
X362196Y343298D01*
X362335Y344000D01*
X362196Y344702D01*
X361798Y345298D01*
X361202Y345696D01*
X360500Y345835D01*
X359798Y345696D01*
X359202Y345298D01*
X359016Y345020D01*
X354910D01*
X354486Y345444D01*
X354486Y346423D01*
X354486Y347023D01*
Y351080D01*
X354486Y351423D01*
X354486Y352023D01*
Y352980D01*
X356569D01*
Y351628D01*
X360525D01*
Y356372D01*
X356569D01*
Y355020D01*
X354910D01*
X354486Y355444D01*
X354486Y356423D01*
X354486Y357023D01*
Y358032D01*
X357051D01*
X357441Y358109D01*
X357772Y358330D01*
X364221Y364779D01*
X364267Y364847D01*
X364798Y365202D01*
X365196Y365798D01*
X365335Y366500D01*
X365196Y367202D01*
X365042Y367432D01*
X365363Y368032D01*
X366026D01*
X368980Y365078D01*
Y362931D01*
X367628D01*
Y358975D01*
X372372D01*
Y362931D01*
X371020D01*
Y365500D01*
X370942Y365890D01*
X370721Y366221D01*
X367170Y369772D01*
X366839Y369993D01*
X366449Y370071D01*
X354910D01*
X354486Y370495D01*
X354486Y371423D01*
X354486Y372023D01*
Y373032D01*
X356551D01*
X356941Y373109D01*
X357272Y373330D01*
X367028Y383086D01*
X367628Y382838D01*
Y379616D01*
X372372D01*
Y380575D01*
X381721D01*
X381783Y380500D01*
X381951Y379651D01*
X382432Y378932D01*
X383151Y378451D01*
X384000Y378283D01*
X384849Y378451D01*
X385568Y378932D01*
X386049Y379651D01*
X386217Y380500D01*
X386049Y381349D01*
X385568Y382068D01*
X384849Y382549D01*
X384000Y382717D01*
X383193Y382557D01*
X382906Y382614D01*
X372372D01*
Y383572D01*
X368363D01*
X368114Y384172D01*
X369464Y385522D01*
X372372D01*
Y389478D01*
X367628D01*
Y386570D01*
X356129Y375071D01*
X354486D01*
Y376423D01*
X349743D01*
Y372023D01*
X349743Y371679D01*
X349743Y371079D01*
Y367023D01*
X349743Y366680D01*
X349743Y366079D01*
Y362023D01*
X349743Y361680D01*
X349743Y361080D01*
Y357023D01*
X349743Y356680D01*
X349743Y356080D01*
Y352023D01*
X349743Y351679D01*
X349743Y351080D01*
Y347023D01*
X349743Y346679D01*
X349743Y346079D01*
Y342023D01*
X349743Y341680D01*
X349743Y341079D01*
Y337023D01*
X349743Y336680D01*
X349743Y336080D01*
Y332023D01*
X349743Y331680D01*
X349743Y331080D01*
Y327023D01*
X349743Y326679D01*
X349743Y326080D01*
Y322023D01*
X349743Y321679D01*
X349743Y321079D01*
Y320071D01*
X339371D01*
X333520Y325922D01*
Y357500D01*
X333442Y357890D01*
X333221Y358221D01*
X322721Y368721D01*
X322390Y368942D01*
X322000Y369020D01*
X295422D01*
X291020Y373422D01*
Y380500D01*
X290942Y380890D01*
X290721Y381221D01*
X287945Y383997D01*
X287615Y384218D01*
X287224Y384295D01*
X277667D01*
Y385844D01*
X272333D01*
Y380707D01*
X277667D01*
Y382256D01*
X286802D01*
X288980Y380078D01*
Y373000D01*
X289058Y372610D01*
X289279Y372279D01*
X294279Y367279D01*
X294610Y367058D01*
X295000Y366980D01*
X321578D01*
X331480Y357078D01*
Y325810D01*
X330880Y325561D01*
X327911Y328531D01*
Y351911D01*
X303089D01*
Y328531D01*
X284629Y310071D01*
X283910D01*
X283486Y310495D01*
X283486Y311423D01*
X283486Y312023D01*
Y316079D01*
X283486Y316423D01*
X283486Y317023D01*
Y321079D01*
X283486Y321423D01*
X283486Y322023D01*
Y326080D01*
X283486Y326423D01*
X283486Y327023D01*
Y331080D01*
X283486Y331423D01*
X283486Y332023D01*
Y336080D01*
X283486Y336423D01*
X283486Y337023D01*
Y341079D01*
X283486Y341423D01*
X283486Y342023D01*
Y346079D01*
X283486Y346423D01*
X283486Y347023D01*
Y351080D01*
X283486Y351423D01*
X283486Y352023D01*
Y356080D01*
X283486Y356423D01*
X283486Y357023D01*
Y361080D01*
X283486Y361423D01*
X283486Y362023D01*
Y366079D01*
X283486Y366423D01*
X283486Y367023D01*
Y371079D01*
X283486Y371423D01*
X283486Y372023D01*
Y376423D01*
X278743D01*
Y375071D01*
X264871D01*
X259335Y380607D01*
X259583Y381207D01*
X260667D01*
Y386344D01*
X258823D01*
X258721Y386496D01*
X258390Y386718D01*
X258000Y386795D01*
X257610Y386718D01*
X257279Y386496D01*
X257177Y386344D01*
X255333D01*
Y381207D01*
X256980D01*
Y380500D01*
X257058Y380110D01*
X257279Y379779D01*
X263728Y373330D01*
X264059Y373109D01*
X264449Y373032D01*
X278318D01*
X278743Y372607D01*
X278743Y371679D01*
X278743Y371079D01*
Y367023D01*
X278743Y366680D01*
X278743Y366079D01*
Y362023D01*
X278743Y361680D01*
X278743Y361080D01*
Y357023D01*
X278743Y356680D01*
X278743Y356080D01*
Y352023D01*
X278743Y351679D01*
X278743Y350548D01*
X278142Y350299D01*
X277721Y350721D01*
X277390Y350942D01*
X277000Y351020D01*
X276383D01*
Y352372D01*
X272428D01*
Y347628D01*
X276383D01*
Y348326D01*
X276983Y348575D01*
X277228Y348330D01*
X277559Y348109D01*
X277949Y348032D01*
X278318D01*
X278743Y347607D01*
X278743Y346679D01*
X278743Y346120D01*
X278646Y345520D01*
X275978D01*
Y346872D01*
X272022D01*
Y342128D01*
X275978D01*
Y343480D01*
X278318D01*
X278743Y343056D01*
X278743Y341680D01*
X278743Y341079D01*
Y337023D01*
X278743Y336680D01*
X278743Y336080D01*
Y335020D01*
X276431D01*
Y336372D01*
X272475D01*
Y331628D01*
X276431D01*
Y332980D01*
X278318D01*
X278743Y332556D01*
X278743Y331680D01*
X278743Y331080D01*
Y329520D01*
X263731D01*
Y330872D01*
X259775D01*
Y326128D01*
X263731D01*
Y327480D01*
X278318D01*
X278743Y327056D01*
Y326679D01*
X278743Y326080D01*
Y325071D01*
X266051D01*
X265661Y324993D01*
X265330Y324772D01*
X264331Y323773D01*
X263731Y324021D01*
Y324872D01*
X259775D01*
X259775Y320128D01*
X259220Y320020D01*
X258380D01*
X257825Y320128D01*
X257825Y320620D01*
Y324872D01*
X253869D01*
Y324020D01*
X245484D01*
X245298Y324298D01*
X244702Y324696D01*
X244000Y324835D01*
X243298Y324696D01*
X242702Y324298D01*
X242304Y323702D01*
X242165Y323000D01*
X242304Y322298D01*
X242702Y321702D01*
X243298Y321304D01*
X244000Y321165D01*
X244702Y321304D01*
X245298Y321702D01*
X245484Y321980D01*
X253869D01*
X253869Y320128D01*
X253314Y320020D01*
X240922D01*
X235020Y325922D01*
Y339078D01*
X239753Y343811D01*
X239973Y344141D01*
X240051Y344531D01*
Y348159D01*
X240651Y348407D01*
X245279Y343779D01*
X245610Y343558D01*
X246000Y343480D01*
X266116D01*
Y342128D01*
X270072D01*
Y346872D01*
X266116D01*
Y345520D01*
X250897D01*
X250577Y346120D01*
X250696Y346298D01*
X250835Y347000D01*
X250696Y347702D01*
X250298Y348298D01*
X250174Y348380D01*
X250356Y348980D01*
X251016D01*
X251202Y348702D01*
X251798Y348304D01*
X252500Y348165D01*
X253202Y348304D01*
X253798Y348702D01*
X254196Y349298D01*
X254335Y350000D01*
X254196Y350702D01*
X253798Y351298D01*
X253202Y351696D01*
X252500Y351835D01*
X251798Y351696D01*
X251202Y351298D01*
X251016Y351020D01*
X249422D01*
X247531Y352910D01*
Y357075D01*
X248195D01*
Y359724D01*
X252578D01*
X253628Y358674D01*
Y355569D01*
X254980D01*
Y353000D01*
X255058Y352610D01*
X255279Y352279D01*
X255426Y352133D01*
X255360Y351804D01*
X255500Y351102D01*
X255898Y350507D01*
X256493Y350109D01*
X257196Y349969D01*
X257898Y350109D01*
X258493Y350507D01*
X258891Y351102D01*
X259031Y351804D01*
X258891Y352507D01*
X258493Y353102D01*
X257898Y353500D01*
X257196Y353640D01*
X257020Y353784D01*
Y355569D01*
X258372D01*
Y359919D01*
X255623D01*
X255507Y360081D01*
X255817Y360681D01*
X258772D01*
Y362756D01*
X256000D01*
Y363256D01*
D01*
Y362756D01*
X253228D01*
Y361951D01*
X253000Y361764D01*
X248195D01*
Y364510D01*
X250665Y366980D01*
X257578D01*
X258173Y366385D01*
X257943Y365831D01*
X256500D01*
Y363756D01*
X258772D01*
Y365002D01*
X259326Y365232D01*
X263085Y361473D01*
X263058Y361327D01*
X262396Y361047D01*
X262358Y361072D01*
X262000Y361144D01*
Y359000D01*
X261500D01*
Y358500D01*
X259356D01*
X259428Y358142D01*
X259914Y357414D01*
X260642Y356928D01*
X261055Y356845D01*
X261279Y356221D01*
X261058Y355890D01*
X260980Y355500D01*
Y351331D01*
X260298Y351196D01*
X259702Y350798D01*
X259304Y350202D01*
X259165Y349500D01*
X259304Y348798D01*
X259702Y348202D01*
X260298Y347804D01*
X261000Y347665D01*
X261702Y347804D01*
X262298Y348202D01*
X262696Y348798D01*
X262835Y349500D01*
X262766Y349847D01*
X262942Y350110D01*
X263020Y350500D01*
Y355078D01*
X263300Y355358D01*
X263301Y355358D01*
X263632Y355579D01*
X265221Y357168D01*
X265442Y357499D01*
X265520Y357889D01*
Y361500D01*
X265442Y361890D01*
X265221Y362221D01*
X258721Y368721D01*
X258390Y368942D01*
X258000Y369020D01*
X250242D01*
X249852Y368942D01*
X249521Y368721D01*
X246359Y365558D01*
X244829Y365558D01*
X244657Y366087D01*
Y368083D01*
X243468D01*
Y366000D01*
Y363917D01*
X244657D01*
X244829Y363388D01*
Y358639D01*
X244257Y358570D01*
X244229Y358570D01*
X237771D01*
X237742Y358570D01*
X237171Y358639D01*
Y362580D01*
X237571D01*
Y363788D01*
X237742Y364317D01*
X238171Y364317D01*
X241280D01*
Y363917D01*
X242469D01*
Y366000D01*
Y368083D01*
X241280D01*
Y367683D01*
X240051D01*
Y371000D01*
X239973Y371390D01*
X239753Y371721D01*
X237764Y373710D01*
Y374628D01*
X238919D01*
Y379372D01*
X237764D01*
Y385261D01*
X238042Y385446D01*
X238440Y386042D01*
X238579Y386744D01*
X238440Y387446D01*
X238042Y388042D01*
X237446Y388440D01*
X236744Y388579D01*
X236042Y388440D01*
X235446Y388042D01*
X235049Y387446D01*
X234909Y386744D01*
X235049Y386042D01*
X235446Y385446D01*
X235724Y385261D01*
Y379372D01*
X234569D01*
Y374628D01*
X235724D01*
Y373287D01*
X235802Y372897D01*
X236023Y372566D01*
X238012Y370578D01*
Y367683D01*
X237742D01*
Y366487D01*
X237571Y365958D01*
X237142Y365958D01*
X235988D01*
Y364269D01*
X234988D01*
Y365958D01*
X233405D01*
X233020Y366398D01*
Y366665D01*
X233500Y367165D01*
X234202Y367304D01*
X234798Y367702D01*
X235196Y368298D01*
X235335Y369000D01*
X235196Y369702D01*
X234798Y370298D01*
X234202Y370696D01*
X233500Y370835D01*
X232798Y370696D01*
X232222Y370311D01*
X232105Y370333D01*
X231622Y370509D01*
Y377875D01*
Y411956D01*
X232160Y412105D01*
X232222Y412105D01*
X240840D01*
Y420391D01*
X232222D01*
X232160Y420391D01*
X231896Y420464D01*
Y420695D01*
X232465Y421160D01*
X240840D01*
Y429840D01*
X232222D01*
X232160Y429840D01*
X231622Y429989D01*
Y432428D01*
X232160Y432577D01*
X232222Y432577D01*
X240840D01*
Y441257D01*
X232222D01*
X232160Y441257D01*
X231896Y441331D01*
Y441561D01*
X232465Y442026D01*
X240840D01*
Y450312D01*
X232222D01*
X232160Y450312D01*
X231622Y450461D01*
Y523625D01*
Y643878D01*
X393879D01*
Y306121D01*
D02*
G37*
%LPC*%
G36*
X241756Y376500D02*
X239681D01*
Y374228D01*
X241756D01*
Y376500D01*
D02*
G37*
G36*
X272000Y369144D02*
Y367500D01*
X273644D01*
X273572Y367858D01*
X273086Y368586D01*
X272358Y369072D01*
X272000Y369144D01*
D02*
G37*
G36*
X271000D02*
X270642Y369072D01*
X269914Y368586D01*
X269428Y367858D01*
X269356Y367500D01*
X271000D01*
Y369144D01*
D02*
G37*
G36*
X244831Y379772D02*
X242756D01*
Y377500D01*
X244831D01*
Y379772D01*
D02*
G37*
G36*
X241756D02*
X239681D01*
Y377500D01*
X241756D01*
Y379772D01*
D02*
G37*
G36*
X244831Y376500D02*
X242756D01*
Y374228D01*
X244831D01*
Y376500D01*
D02*
G37*
G36*
X384500Y365217D02*
X383651Y365049D01*
X382932Y364568D01*
X382451Y363849D01*
X382283Y363000D01*
X382451Y362151D01*
X382932Y361432D01*
X383651Y360951D01*
X384500Y360783D01*
X385349Y360951D01*
X386068Y361432D01*
X386549Y362151D01*
X386717Y363000D01*
X386549Y363849D01*
X386068Y364568D01*
X385349Y365049D01*
X384500Y365217D01*
D02*
G37*
G36*
X261000Y361144D02*
X260642Y361072D01*
X259914Y360586D01*
X259428Y359858D01*
X259356Y359500D01*
X261000D01*
Y361144D01*
D02*
G37*
G36*
X346500Y360335D02*
X345798Y360196D01*
X345202Y359798D01*
X344804Y359202D01*
X344665Y358500D01*
X344730Y358172D01*
X341779Y355221D01*
X341558Y354890D01*
X341480Y354500D01*
Y339484D01*
X341202Y339298D01*
X340804Y338702D01*
X340665Y338000D01*
X340804Y337298D01*
X341202Y336702D01*
X341798Y336304D01*
X342500Y336165D01*
X343202Y336304D01*
X343798Y336702D01*
X344196Y337298D01*
X344335Y338000D01*
X344196Y338702D01*
X343798Y339298D01*
X343520Y339484D01*
Y354078D01*
X346172Y356730D01*
X346500Y356665D01*
X347202Y356804D01*
X347798Y357202D01*
X348196Y357798D01*
X348335Y358500D01*
X348196Y359202D01*
X347798Y359798D01*
X347202Y360196D01*
X346500Y360335D01*
D02*
G37*
G36*
X273644Y366500D02*
X272000D01*
Y364856D01*
X272358Y364928D01*
X273086Y365414D01*
X273572Y366142D01*
X273644Y366500D01*
D02*
G37*
G36*
X271000D02*
X269356D01*
X269428Y366142D01*
X269914Y365414D01*
X270642Y364928D01*
X271000Y364856D01*
Y366500D01*
D02*
G37*
G36*
X255500Y365831D02*
X253228D01*
Y363756D01*
X255500D01*
Y365831D01*
D02*
G37*
G36*
X253000Y491335D02*
X252298Y491196D01*
X251702Y490798D01*
X251304Y490202D01*
X251165Y489500D01*
X251230Y489172D01*
X250779Y488721D01*
X250558Y488390D01*
X250480Y488000D01*
Y479000D01*
X250558Y478610D01*
X250779Y478279D01*
X262279Y466779D01*
X262610Y466558D01*
X263000Y466480D01*
X271078D01*
X275736Y461822D01*
Y459572D01*
X274581D01*
Y454828D01*
X275736D01*
Y451372D01*
X274581D01*
Y446628D01*
X275375D01*
X275586Y446028D01*
X274078Y444520D01*
X264500D01*
X264110Y444442D01*
X263779Y444221D01*
X256904Y437346D01*
X249895D01*
Y437714D01*
X243183D01*
Y434939D01*
Y432380D01*
Y429821D01*
Y427262D01*
Y424703D01*
X249895D01*
Y425071D01*
X253426D01*
X253612Y424793D01*
X254207Y424395D01*
X254909Y424255D01*
X255612Y424395D01*
X256207Y424793D01*
X256605Y425388D01*
X256745Y426090D01*
X256605Y426793D01*
X256207Y427388D01*
X255612Y427786D01*
X254909Y427926D01*
X254207Y427786D01*
X253612Y427388D01*
X253426Y427110D01*
X249895D01*
Y430189D01*
X258808D01*
X258994Y429911D01*
X259589Y429513D01*
X260291Y429373D01*
X260994Y429513D01*
X261589Y429911D01*
X261987Y430506D01*
X262127Y431209D01*
X261987Y431911D01*
X261589Y432506D01*
X260994Y432904D01*
X260291Y433044D01*
X259589Y432904D01*
X259114Y432587D01*
X258875Y432602D01*
X258719Y432777D01*
X258484Y433170D01*
X258603Y433768D01*
X258463Y434470D01*
X258144Y434948D01*
X258096Y435273D01*
X258163Y435722D01*
X264922Y442480D01*
X274500D01*
X274890Y442558D01*
X275221Y442779D01*
X277477Y445035D01*
X277698Y445366D01*
X277776Y445756D01*
Y446628D01*
X278931D01*
Y447980D01*
X281078D01*
X287886Y441172D01*
Y439840D01*
X275983D01*
Y439375D01*
X275520Y438856D01*
X273158D01*
X272770Y438779D01*
X272441Y438559D01*
X272221Y438230D01*
X272144Y437843D01*
Y435480D01*
X271625Y435017D01*
X271160D01*
Y432794D01*
Y428857D01*
Y424920D01*
Y420983D01*
X271625D01*
X272144Y420520D01*
Y418157D01*
X272221Y417770D01*
X272441Y417441D01*
X272770Y417221D01*
X273158Y417144D01*
X275520D01*
X275983Y416625D01*
Y416160D01*
X278934D01*
X279164Y415605D01*
X278078Y414520D01*
X276484D01*
X276298Y414798D01*
X275702Y415196D01*
X275000Y415335D01*
X274298Y415196D01*
X273702Y414798D01*
X273304Y414202D01*
X273165Y413500D01*
X273304Y412798D01*
X273702Y412202D01*
X273826Y412120D01*
X273644Y411520D01*
X269094D01*
X268704Y411442D01*
X268373Y411221D01*
X265524Y408372D01*
X262616D01*
Y407020D01*
X258500D01*
X258110Y406942D01*
X257779Y406721D01*
X253342Y402284D01*
X253121Y401953D01*
X253043Y401563D01*
Y395793D01*
X251396D01*
Y390656D01*
X256730D01*
Y395793D01*
X255083D01*
Y401141D01*
X258922Y404980D01*
X262616D01*
Y403628D01*
X266572D01*
Y406536D01*
X267922Y407886D01*
X268522Y407637D01*
Y403628D01*
X272478D01*
Y404980D01*
X275578D01*
X277854Y402704D01*
Y395293D01*
X276270D01*
Y390156D01*
X281604D01*
Y395293D01*
X279894D01*
Y403126D01*
X279816Y403516D01*
X279595Y403847D01*
X276721Y406721D01*
X276390Y406942D01*
X276000Y407020D01*
X272478D01*
Y408372D01*
X269257D01*
X269008Y408972D01*
X269517Y409480D01*
X275136D01*
X277337Y407279D01*
X277668Y407058D01*
X278058Y406980D01*
X286500D01*
X286890Y407058D01*
X287221Y407279D01*
X289627Y409685D01*
X289847Y410015D01*
X289925Y410405D01*
Y416160D01*
X290017D01*
Y416625D01*
X290480Y417144D01*
X292843D01*
X293230Y417221D01*
X293559Y417441D01*
X293779Y417770D01*
X293856Y418157D01*
Y420520D01*
X294375Y420983D01*
X294840D01*
Y425012D01*
X303587D01*
X303876Y425069D01*
X307172D01*
Y426225D01*
X311128D01*
Y425069D01*
X315872D01*
Y426225D01*
X318272D01*
X318458Y425946D01*
X319054Y425549D01*
X319756Y425409D01*
X320458Y425549D01*
X321054Y425946D01*
X321451Y426542D01*
X321591Y427244D01*
X321451Y427946D01*
X321054Y428542D01*
X320458Y428940D01*
X319756Y429079D01*
X319054Y428940D01*
X318458Y428542D01*
X318272Y428264D01*
X315872D01*
Y429419D01*
X311128D01*
Y428264D01*
X307172D01*
Y429419D01*
X302428D01*
Y427051D01*
X301403D01*
X301221Y427651D01*
X301298Y427702D01*
X301696Y428298D01*
X301835Y429000D01*
X301746Y429448D01*
X301696Y429702D01*
X301730Y429779D01*
X302097Y430181D01*
X302586Y430181D01*
X304300D01*
Y432256D01*
X302028D01*
Y430761D01*
X302028Y430284D01*
X301514Y429974D01*
X301298Y430298D01*
X300702Y430696D01*
X300000Y430835D01*
X299520Y431352D01*
Y432516D01*
X299798Y432702D01*
X300196Y433298D01*
X300335Y434000D01*
X300196Y434702D01*
X299798Y435298D01*
X299202Y435696D01*
X298500Y435835D01*
X297798Y435696D01*
X297202Y435298D01*
X296804Y434702D01*
X296665Y434000D01*
X296804Y433298D01*
X297202Y432702D01*
X297480Y432516D01*
Y431422D01*
X297046Y430988D01*
X295240D01*
Y431437D01*
X292350D01*
Y432437D01*
X295240D01*
Y433405D01*
X292350D01*
Y434406D01*
X295240D01*
Y435417D01*
X293907D01*
X293856Y435480D01*
Y437843D01*
X293779Y438230D01*
X293559Y438559D01*
X293230Y438779D01*
X292843Y438856D01*
X290480D01*
X290017Y439375D01*
Y439840D01*
X289925D01*
Y441595D01*
X289847Y441985D01*
X289627Y442315D01*
X282221Y449721D01*
X281890Y449942D01*
X281500Y450020D01*
X278931D01*
Y451372D01*
X277776D01*
Y454828D01*
X278931D01*
Y459572D01*
X277776D01*
Y462244D01*
X277698Y462634D01*
X277477Y462965D01*
X272221Y468221D01*
X271890Y468442D01*
X271500Y468520D01*
X263422D01*
X252520Y479422D01*
Y487165D01*
X253000Y487665D01*
X253702Y487804D01*
X254298Y488202D01*
X254696Y488798D01*
X254835Y489500D01*
X254696Y490202D01*
X254298Y490798D01*
X253702Y491196D01*
X253000Y491335D01*
D02*
G37*
G36*
X249698Y423738D02*
X242199D01*
Y414270D01*
X249698D01*
Y423738D01*
D02*
G37*
G36*
X384500Y418217D02*
X383651Y418049D01*
X382932Y417568D01*
X382451Y416849D01*
X382283Y416000D01*
X382451Y415151D01*
X382932Y414432D01*
X383651Y413951D01*
X384500Y413783D01*
X385349Y413951D01*
X386068Y414432D01*
X386549Y415151D01*
X386717Y416000D01*
X386549Y416849D01*
X386068Y417568D01*
X385349Y418049D01*
X384500Y418217D01*
D02*
G37*
G36*
X316272Y432256D02*
X314000D01*
Y430181D01*
X316272D01*
Y432256D01*
D02*
G37*
G36*
X313000D02*
X310728D01*
Y430181D01*
X313000D01*
Y432256D01*
D02*
G37*
G36*
X307572D02*
X305300D01*
Y430181D01*
X307572D01*
Y432256D01*
D02*
G37*
G36*
X266025Y402872D02*
X262069D01*
Y398128D01*
X262550D01*
X262799Y397528D01*
X261216Y395945D01*
X261114Y395793D01*
X259270D01*
Y390656D01*
X264604D01*
Y395793D01*
X264604D01*
X264412Y396257D01*
X264768Y396614D01*
X264989Y396944D01*
X265067Y397335D01*
Y398128D01*
X266025D01*
Y402872D01*
D02*
G37*
G36*
X384000Y392717D02*
X383151Y392549D01*
X382432Y392068D01*
X381951Y391349D01*
X381783Y390500D01*
X381951Y389651D01*
X382432Y388932D01*
X383151Y388451D01*
X384000Y388283D01*
X384849Y388451D01*
X385568Y388932D01*
X386049Y389651D01*
X386217Y390500D01*
X386049Y391349D01*
X385568Y392068D01*
X384849Y392549D01*
X384000Y392717D01*
D02*
G37*
G36*
X313000Y435331D02*
X310728D01*
Y433256D01*
X313000D01*
Y435331D01*
D02*
G37*
G36*
X372372Y416478D02*
X367628D01*
Y415520D01*
X361500D01*
X361110Y415442D01*
X360779Y415221D01*
X340578Y395020D01*
X338500D01*
X338110Y394942D01*
X337779Y394721D01*
X333401Y390343D01*
X333180Y390012D01*
X333102Y389622D01*
Y382713D01*
X332678Y382289D01*
X331750Y382289D01*
X331150Y382289D01*
X327094D01*
X326750Y382289D01*
X326150Y382289D01*
X322094D01*
X321750Y382289D01*
X321150Y382289D01*
X317094D01*
X316750Y382289D01*
X316150Y382289D01*
X312094D01*
X311750Y382289D01*
X311150Y382289D01*
X307094D01*
X306750Y382289D01*
X306150Y382289D01*
X302094D01*
X301750Y382289D01*
X301150Y382289D01*
X297094D01*
X296750Y382289D01*
X296150Y382289D01*
X291750D01*
Y377546D01*
X296150D01*
X296494Y377546D01*
X297094Y377546D01*
X301150D01*
X301494Y377546D01*
X302094Y377546D01*
X306150D01*
X306494Y377546D01*
X307094Y377546D01*
X311150D01*
X311494Y377546D01*
X312094Y377546D01*
X316150D01*
X316494Y377546D01*
X317094Y377546D01*
X321150D01*
X321494Y377546D01*
X322094Y377546D01*
X326150D01*
X326494Y377546D01*
X327094Y377546D01*
X331150D01*
X331494Y377546D01*
X332094Y377546D01*
X336150D01*
X336494Y377546D01*
X337094Y377546D01*
X341494D01*
Y380847D01*
X345377Y384730D01*
X345705Y384665D01*
X346407Y384804D01*
X347002Y385202D01*
X347400Y385798D01*
X347540Y386500D01*
X347400Y387202D01*
X347002Y387798D01*
X346407Y388196D01*
X345705Y388335D01*
X345002Y388196D01*
X344407Y387798D01*
X344009Y387202D01*
X343869Y386500D01*
X343935Y386172D01*
X340052Y382289D01*
X337094D01*
X336750Y382289D01*
X336150Y382289D01*
X335142D01*
Y389200D01*
X338922Y392980D01*
X341000D01*
X341390Y393058D01*
X341721Y393279D01*
X361922Y413480D01*
X367628D01*
Y412522D01*
X372372D01*
Y416478D01*
D02*
G37*
G36*
Y410572D02*
X367628D01*
Y406616D01*
X372372D01*
Y407575D01*
X381483D01*
X382411Y406647D01*
X382283Y406000D01*
X382451Y405151D01*
X382932Y404432D01*
X383651Y403951D01*
X384500Y403783D01*
X385349Y403951D01*
X386068Y404432D01*
X386549Y405151D01*
X386717Y406000D01*
X386549Y406849D01*
X386068Y407568D01*
X385349Y408049D01*
X384500Y408217D01*
X383853Y408089D01*
X382627Y409315D01*
X382296Y409537D01*
X381906Y409614D01*
X372372D01*
Y410572D01*
D02*
G37*
G36*
X271931Y402872D02*
X267975D01*
Y398128D01*
X268933D01*
Y395547D01*
X268724Y395293D01*
X268396D01*
Y390156D01*
X273730D01*
Y395293D01*
X271649D01*
X270972Y395970D01*
Y398128D01*
X271931D01*
Y398980D01*
X273516D01*
X273702Y398702D01*
X274298Y398304D01*
X275000Y398165D01*
X275702Y398304D01*
X276298Y398702D01*
X276696Y399298D01*
X276835Y400000D01*
X276696Y400702D01*
X276298Y401298D01*
X275702Y401696D01*
X275000Y401835D01*
X274298Y401696D01*
X273702Y401298D01*
X273516Y401020D01*
X271931D01*
Y402872D01*
D02*
G37*
G36*
X376500Y316819D02*
X374228D01*
Y314744D01*
X376500D01*
Y316819D01*
D02*
G37*
G36*
X371831Y315772D02*
X369756D01*
Y313500D01*
X371831D01*
Y315772D01*
D02*
G37*
G36*
X368756D02*
X366681D01*
Y313500D01*
X368756D01*
Y315772D01*
D02*
G37*
G36*
X391846Y318350D02*
X388000D01*
Y315685D01*
X391846D01*
Y318350D01*
D02*
G37*
G36*
X387000D02*
X383154D01*
Y315685D01*
X387000D01*
Y318350D01*
D02*
G37*
G36*
X379772Y316819D02*
X377500D01*
Y314744D01*
X379772D01*
Y316819D01*
D02*
G37*
G36*
X376500Y313744D02*
X374228D01*
Y311669D01*
X376500D01*
Y313744D01*
D02*
G37*
G36*
X371831Y312500D02*
X369756D01*
Y310228D01*
X371831D01*
Y312500D01*
D02*
G37*
G36*
X368756D02*
X366681D01*
Y310228D01*
X368756D01*
Y312500D01*
D02*
G37*
G36*
X391846Y314685D02*
X388000D01*
Y312020D01*
X391846D01*
Y314685D01*
D02*
G37*
G36*
X387000D02*
X383154D01*
Y312020D01*
X387000D01*
Y314685D01*
D02*
G37*
G36*
X379772Y313744D02*
X377500D01*
Y311669D01*
X379772D01*
Y313744D01*
D02*
G37*
G36*
X367000Y322547D02*
X364728D01*
Y320669D01*
X367000D01*
Y322547D01*
D02*
G37*
G36*
X382000Y343835D02*
X381298Y343696D01*
X380702Y343298D01*
X380304Y342702D01*
X380165Y342000D01*
X380230Y341672D01*
X376733Y338175D01*
X373628D01*
Y333825D01*
X378372D01*
Y336930D01*
X381672Y340230D01*
X382000Y340165D01*
X382702Y340304D01*
X383298Y340702D01*
X383696Y341298D01*
X383835Y342000D01*
X383696Y342702D01*
X383298Y343298D01*
X382702Y343696D01*
X382000Y343835D01*
D02*
G37*
G36*
X391000Y337835D02*
X390298Y337696D01*
X389702Y337298D01*
X389304Y336702D01*
X389165Y336000D01*
X389230Y335672D01*
X386779Y333221D01*
X386558Y332890D01*
X386480Y332500D01*
Y328580D01*
X383554D01*
Y326835D01*
X382815D01*
X382425Y326757D01*
X382094Y326536D01*
X377489Y321931D01*
X374628D01*
Y317581D01*
X379372D01*
Y320930D01*
X382954Y324512D01*
X383554Y324263D01*
Y323050D01*
X391446D01*
Y328580D01*
X388520D01*
Y332078D01*
X390672Y334230D01*
X391000Y334165D01*
X391702Y334304D01*
X392298Y334702D01*
X392696Y335298D01*
X392835Y336000D01*
X392696Y336702D01*
X392298Y337298D01*
X391702Y337696D01*
X391000Y337835D01*
D02*
G37*
G36*
X249000Y342335D02*
X248298Y342196D01*
X247702Y341798D01*
X247304Y341202D01*
X247165Y340500D01*
X247304Y339798D01*
X247702Y339202D01*
X248298Y338804D01*
X249000Y338665D01*
X249702Y338804D01*
X250298Y339202D01*
X250484Y339480D01*
X251078D01*
X254730Y335828D01*
X254665Y335500D01*
X254804Y334798D01*
X255202Y334202D01*
X255798Y333804D01*
X256500Y333665D01*
X257202Y333804D01*
X257798Y334202D01*
X258196Y334798D01*
X258335Y335500D01*
X258196Y336202D01*
X257798Y336798D01*
X257202Y337196D01*
X256500Y337335D01*
X256172Y337270D01*
X252221Y341221D01*
X251890Y341442D01*
X251500Y341520D01*
X250484D01*
X250298Y341798D01*
X249702Y342196D01*
X249000Y342335D01*
D02*
G37*
G36*
X363500Y362335D02*
X362798Y362196D01*
X362202Y361798D01*
X361804Y361202D01*
X361665Y360500D01*
X361804Y359798D01*
X362202Y359202D01*
X362798Y358804D01*
X363500Y358665D01*
X363980Y358165D01*
Y356372D01*
X362475D01*
Y351628D01*
X366431D01*
Y356372D01*
X366020D01*
Y359000D01*
X365942Y359390D01*
X365721Y359721D01*
X365270Y360172D01*
X365335Y360500D01*
X365196Y361202D01*
X364798Y361798D01*
X364202Y362196D01*
X363500Y362335D01*
D02*
G37*
G36*
X372372Y357025D02*
X367628D01*
Y353069D01*
X372372D01*
Y354028D01*
X381999D01*
X382398Y353580D01*
X382283Y353000D01*
X382451Y352151D01*
X382932Y351432D01*
X383651Y350951D01*
X384500Y350783D01*
X385349Y350951D01*
X386068Y351432D01*
X386549Y352151D01*
X386717Y353000D01*
X386549Y353849D01*
X386068Y354568D01*
X385349Y355049D01*
X384500Y355217D01*
X383853Y355089D01*
X383174Y355768D01*
X382843Y355989D01*
X382453Y356067D01*
X372372D01*
Y357025D01*
D02*
G37*
G36*
X249500Y373835D02*
X248798Y373696D01*
X248202Y373298D01*
X247804Y372702D01*
X247665Y372000D01*
X247804Y371298D01*
X248202Y370702D01*
X248798Y370304D01*
X249500Y370165D01*
X250202Y370304D01*
X250798Y370702D01*
X250984Y370980D01*
X257578D01*
X267480Y361078D01*
Y352372D01*
X266522D01*
Y347628D01*
X270478D01*
Y352372D01*
X269520D01*
Y361500D01*
X269442Y361890D01*
X269221Y362221D01*
X258721Y372721D01*
X258390Y372942D01*
X258000Y373020D01*
X250984D01*
X250798Y373298D01*
X250202Y373696D01*
X249500Y373835D01*
D02*
G37*
G36*
X370272Y325425D02*
X368000D01*
Y323547D01*
X370272D01*
Y325425D01*
D02*
G37*
G36*
X367000D02*
X364728D01*
Y323547D01*
X367000D01*
Y325425D01*
D02*
G37*
G36*
X370272Y322547D02*
X368000D01*
Y320669D01*
X370272D01*
Y322547D01*
D02*
G37*
G36*
X258500Y341835D02*
X257798Y341696D01*
X257202Y341298D01*
X256804Y340702D01*
X256665Y340000D01*
X256804Y339298D01*
X257202Y338702D01*
X257798Y338304D01*
X258500Y338165D01*
X258828Y338230D01*
X263779Y333279D01*
X264110Y333058D01*
X264500Y332980D01*
X266569D01*
Y331628D01*
X270525D01*
Y336372D01*
X266569D01*
Y335020D01*
X264922D01*
X260270Y339672D01*
X260335Y340000D01*
X260196Y340702D01*
X259798Y341298D01*
X259202Y341696D01*
X258500Y341835D01*
D02*
G37*
G36*
X243500Y338835D02*
X242798Y338696D01*
X242202Y338298D01*
X241804Y337702D01*
X241665Y337000D01*
X241804Y336298D01*
X242202Y335702D01*
X242480Y335516D01*
Y330872D01*
X240869D01*
Y326128D01*
X244825D01*
Y330872D01*
X244520D01*
Y335516D01*
X244798Y335702D01*
X245196Y336298D01*
X245335Y337000D01*
X245196Y337702D01*
X244798Y338298D01*
X244202Y338696D01*
X243500Y338835D01*
D02*
G37*
G36*
X250731Y330872D02*
X246775D01*
Y326128D01*
X250731D01*
Y327480D01*
X253869D01*
Y326128D01*
X257825D01*
Y330872D01*
X253869D01*
Y329520D01*
X250731D01*
Y330872D01*
D02*
G37*
G36*
X304300Y435331D02*
X302028D01*
Y433256D01*
X304300D01*
Y435331D01*
D02*
G37*
G36*
X302000Y555973D02*
X301325Y555884D01*
X300231Y555431D01*
X299291Y554709D01*
X298569Y553769D01*
X298116Y552675D01*
X298027Y552000D01*
X302000D01*
Y555973D01*
D02*
G37*
G36*
X359000Y562883D02*
X357657Y562751D01*
X356366Y562359D01*
X355176Y561723D01*
X354133Y560867D01*
X353277Y559824D01*
X352641Y558634D01*
X352249Y557343D01*
X352117Y556000D01*
X352249Y554657D01*
X352641Y553366D01*
X353277Y552176D01*
X354133Y551133D01*
X355176Y550277D01*
X356366Y549641D01*
X357657Y549249D01*
X359000Y549117D01*
X360343Y549249D01*
X361634Y549641D01*
X362824Y550277D01*
X363867Y551133D01*
X364723Y552176D01*
X365359Y553366D01*
X365751Y554657D01*
X365883Y556000D01*
X365751Y557343D01*
X365359Y558634D01*
X364723Y559824D01*
X363867Y560867D01*
X362824Y561723D01*
X361634Y562359D01*
X360343Y562751D01*
X359000Y562883D01*
D02*
G37*
G36*
X265300D02*
X263957Y562751D01*
X262666Y562359D01*
X261476Y561723D01*
X260433Y560867D01*
X259577Y559824D01*
X258941Y558634D01*
X258549Y557343D01*
X258417Y556000D01*
X258549Y554657D01*
X258941Y553366D01*
X259577Y552176D01*
X260433Y551133D01*
X261476Y550277D01*
X262666Y549641D01*
X263957Y549249D01*
X265300Y549117D01*
X266643Y549249D01*
X267934Y549641D01*
X269124Y550277D01*
X270167Y551133D01*
X271023Y552176D01*
X271659Y553366D01*
X272051Y554657D01*
X272183Y556000D01*
X272051Y557343D01*
X271659Y558634D01*
X271023Y559824D01*
X270167Y560867D01*
X269124Y561723D01*
X267934Y562359D01*
X266643Y562751D01*
X265300Y562883D01*
D02*
G37*
G36*
X338750Y567148D02*
X337288Y566956D01*
X335926Y566392D01*
X334756Y565494D01*
X333858Y564324D01*
X333294Y562962D01*
X333102Y561500D01*
X333294Y560038D01*
X333858Y558676D01*
X334756Y557506D01*
X335926Y556608D01*
X337288Y556044D01*
X338750Y555852D01*
X340212Y556044D01*
X341574Y556608D01*
X342744Y557506D01*
X343642Y558676D01*
X344206Y560038D01*
X344398Y561500D01*
X344206Y562962D01*
X343642Y564324D01*
X342744Y565494D01*
X341574Y566392D01*
X340212Y566956D01*
X338750Y567148D01*
D02*
G37*
G36*
X286250D02*
X284788Y566956D01*
X283426Y566392D01*
X282256Y565494D01*
X281358Y564324D01*
X280794Y562962D01*
X280602Y561500D01*
X280794Y560038D01*
X281358Y558676D01*
X282256Y557506D01*
X283426Y556608D01*
X284788Y556044D01*
X286250Y555852D01*
X287712Y556044D01*
X289074Y556608D01*
X290244Y557506D01*
X291142Y558676D01*
X291706Y560038D01*
X291898Y561500D01*
X291706Y562962D01*
X291142Y564324D01*
X290244Y565494D01*
X289074Y566392D01*
X287712Y566956D01*
X286250Y567148D01*
D02*
G37*
G36*
X303000Y555973D02*
Y552000D01*
X306973D01*
X306884Y552675D01*
X306431Y553769D01*
X305709Y554709D01*
X304769Y555431D01*
X303675Y555884D01*
X303000Y555973D01*
D02*
G37*
G36*
X302000Y551000D02*
X298027D01*
X298116Y550325D01*
X298569Y549231D01*
X299291Y548291D01*
X300231Y547569D01*
X301325Y547116D01*
X302000Y547027D01*
Y551000D01*
D02*
G37*
G36*
X247000Y548835D02*
X246298Y548696D01*
X245702Y548298D01*
X245304Y547702D01*
X245165Y547000D01*
X245304Y546298D01*
X245702Y545702D01*
X245980Y545516D01*
Y543000D01*
X246058Y542610D01*
X246279Y542279D01*
X251628Y536930D01*
Y534022D01*
X256372D01*
Y537978D01*
X253464D01*
X248020Y543422D01*
Y545516D01*
X248298Y545702D01*
X248696Y546298D01*
X248835Y547000D01*
X248696Y547702D01*
X248298Y548298D01*
X247702Y548696D01*
X247000Y548835D01*
D02*
G37*
G36*
X349484Y522650D02*
X348000D01*
Y520968D01*
X349484D01*
Y522650D01*
D02*
G37*
G36*
X322500Y555635D02*
X321430Y555494D01*
X320432Y555081D01*
X319576Y554424D01*
X318919Y553568D01*
X318506Y552570D01*
X318365Y551500D01*
X318506Y550430D01*
X318919Y549432D01*
X319576Y548576D01*
X320432Y547919D01*
X321430Y547506D01*
X322500Y547365D01*
X323570Y547506D01*
X324568Y547919D01*
X325424Y548576D01*
X326081Y549432D01*
X326495Y550430D01*
X326635Y551500D01*
X326495Y552570D01*
X326081Y553568D01*
X325424Y554424D01*
X324568Y555081D01*
X323570Y555494D01*
X322500Y555635D01*
D02*
G37*
G36*
X312500D02*
X311430Y555494D01*
X310432Y555081D01*
X309576Y554424D01*
X308919Y553568D01*
X308506Y552570D01*
X308365Y551500D01*
X308506Y550430D01*
X308919Y549432D01*
X309576Y548576D01*
X310432Y547919D01*
X311430Y547506D01*
X312500Y547365D01*
X313570Y547506D01*
X314568Y547919D01*
X315424Y548576D01*
X316081Y549432D01*
X316494Y550430D01*
X316635Y551500D01*
X316494Y552570D01*
X316081Y553568D01*
X315424Y554424D01*
X314568Y555081D01*
X313570Y555494D01*
X312500Y555635D01*
D02*
G37*
G36*
X306973Y551000D02*
X303000D01*
Y547027D01*
X303675Y547116D01*
X304769Y547569D01*
X305709Y548291D01*
X306431Y549231D01*
X306884Y550325D01*
X306973Y551000D01*
D02*
G37*
G36*
X264800Y611135D02*
X263730Y610994D01*
X262732Y610581D01*
X261876Y609924D01*
X261219Y609068D01*
X260806Y608070D01*
X260665Y607000D01*
Y601000D01*
X260806Y599930D01*
X261219Y598932D01*
X261876Y598076D01*
X262732Y597419D01*
X263730Y597006D01*
X263780Y596999D01*
Y586001D01*
X263730Y585994D01*
X262732Y585581D01*
X261876Y584924D01*
X261219Y584068D01*
X260806Y583070D01*
X260665Y582000D01*
Y576000D01*
X260806Y574930D01*
X261219Y573932D01*
X261876Y573076D01*
X262732Y572419D01*
X263730Y572006D01*
X264800Y571865D01*
X265870Y572006D01*
X266868Y572419D01*
X267724Y573076D01*
X268381Y573932D01*
X268794Y574930D01*
X268935Y576000D01*
Y582000D01*
X268794Y583070D01*
X268381Y584068D01*
X267724Y584924D01*
X266868Y585581D01*
X265870Y585994D01*
X265820Y586001D01*
Y596999D01*
X265870Y597006D01*
X266868Y597419D01*
X267724Y598076D01*
X268381Y598932D01*
X268794Y599930D01*
X268935Y601000D01*
Y607000D01*
X268794Y608070D01*
X268381Y609068D01*
X267724Y609924D01*
X266868Y610581D01*
X265870Y610994D01*
X264800Y611135D01*
D02*
G37*
G36*
X352500Y605635D02*
X351430Y605494D01*
X350432Y605081D01*
X349576Y604424D01*
X348919Y603568D01*
X348505Y602570D01*
X348365Y601500D01*
X348505Y600430D01*
X348919Y599432D01*
X349576Y598576D01*
X350432Y597919D01*
X351430Y597506D01*
X352500Y597365D01*
X353570Y597506D01*
X354568Y597919D01*
X355424Y598576D01*
X356081Y599432D01*
X356494Y600430D01*
X356635Y601500D01*
X356494Y602570D01*
X356081Y603568D01*
X355424Y604424D01*
X354568Y605081D01*
X353570Y605494D01*
X352500Y605635D01*
D02*
G37*
G36*
X282500Y611135D02*
X281430Y610994D01*
X280432Y610581D01*
X279576Y609924D01*
X278919Y609068D01*
X278505Y608070D01*
X278365Y607000D01*
Y601000D01*
X278505Y599930D01*
X278919Y598932D01*
X279576Y598076D01*
X280432Y597419D01*
X281430Y597006D01*
X282500Y596865D01*
X283570Y597006D01*
X284568Y597419D01*
X285424Y598076D01*
X286081Y598932D01*
X286494Y599930D01*
X286635Y601000D01*
Y607000D01*
X286494Y608070D01*
X286081Y609068D01*
X285424Y609924D01*
X284568Y610581D01*
X283570Y610994D01*
X282500Y611135D01*
D02*
G37*
G36*
X389000Y595141D02*
X388181Y594978D01*
X387486Y594514D01*
X387156Y594020D01*
X380000D01*
X379610Y593942D01*
X379279Y593721D01*
X376779Y591221D01*
X376558Y590890D01*
X376480Y590500D01*
Y483922D01*
X354328Y461770D01*
X354000Y461835D01*
X353298Y461696D01*
X352702Y461298D01*
X352304Y460702D01*
X352165Y460000D01*
X352304Y459298D01*
X352702Y458702D01*
X353298Y458304D01*
X354000Y458165D01*
X354702Y458304D01*
X355298Y458702D01*
X355696Y459298D01*
X355835Y460000D01*
X355770Y460328D01*
X378221Y482779D01*
X378442Y483110D01*
X378520Y483500D01*
Y590078D01*
X380422Y591980D01*
X387156D01*
X387486Y591486D01*
X388181Y591022D01*
X389000Y590859D01*
X389819Y591022D01*
X390514Y591486D01*
X390978Y592181D01*
X391141Y593000D01*
X390978Y593819D01*
X390514Y594514D01*
X389819Y594978D01*
X389000Y595141D01*
D02*
G37*
G36*
X338750Y627148D02*
X337288Y626956D01*
X335926Y626392D01*
X334756Y625494D01*
X333858Y624324D01*
X333294Y622962D01*
X333102Y621500D01*
X333294Y620038D01*
X333858Y618676D01*
X334756Y617506D01*
X335926Y616608D01*
X337288Y616044D01*
X338750Y615852D01*
X340212Y616044D01*
X341574Y616608D01*
X342744Y617506D01*
X343642Y618676D01*
X344206Y620038D01*
X344398Y621500D01*
X344206Y622962D01*
X343642Y624324D01*
X342744Y625494D01*
X341574Y626392D01*
X340212Y626956D01*
X338750Y627148D01*
D02*
G37*
G36*
X286250D02*
X284788Y626956D01*
X283426Y626392D01*
X282256Y625494D01*
X281358Y624324D01*
X280794Y622962D01*
X280602Y621500D01*
X280794Y620038D01*
X281358Y618676D01*
X282256Y617506D01*
X283426Y616608D01*
X284788Y616044D01*
X286250Y615852D01*
X287712Y616044D01*
X289074Y616608D01*
X290244Y617506D01*
X291142Y618676D01*
X291706Y620038D01*
X291898Y621500D01*
X291706Y622962D01*
X291142Y624324D01*
X290244Y625494D01*
X289074Y626392D01*
X287712Y626956D01*
X286250Y627148D01*
D02*
G37*
G36*
X389000Y602641D02*
X388181Y602478D01*
X387486Y602014D01*
X387022Y601319D01*
X386859Y600500D01*
X387022Y599681D01*
X387486Y598986D01*
X388181Y598522D01*
X389000Y598359D01*
X389819Y598522D01*
X390514Y598986D01*
X390978Y599681D01*
X391141Y600500D01*
X390978Y601319D01*
X390514Y602014D01*
X389819Y602478D01*
X389000Y602641D01*
D02*
G37*
G36*
X356973Y581000D02*
X353000D01*
Y577027D01*
X353675Y577116D01*
X354769Y577569D01*
X355709Y578291D01*
X356431Y579231D01*
X356884Y580325D01*
X356973Y581000D01*
D02*
G37*
G36*
X352000D02*
X348027D01*
X348116Y580325D01*
X348569Y579231D01*
X349291Y578291D01*
X350231Y577569D01*
X351325Y577116D01*
X352000Y577027D01*
Y581000D01*
D02*
G37*
G36*
X282500Y586135D02*
X281430Y585994D01*
X280432Y585581D01*
X279576Y584924D01*
X278919Y584068D01*
X278505Y583070D01*
X278365Y582000D01*
Y576000D01*
X278505Y574930D01*
X278919Y573932D01*
X279576Y573076D01*
X280432Y572419D01*
X281430Y572006D01*
X282500Y571865D01*
X283570Y572006D01*
X284568Y572419D01*
X285424Y573076D01*
X286081Y573932D01*
X286494Y574930D01*
X286635Y576000D01*
Y582000D01*
X286494Y583070D01*
X286081Y584068D01*
X285424Y584924D01*
X284568Y585581D01*
X283570Y585994D01*
X282500Y586135D01*
D02*
G37*
G36*
X352500Y595635D02*
X351430Y595495D01*
X350432Y595081D01*
X349576Y594424D01*
X348919Y593568D01*
X348505Y592570D01*
X348365Y591500D01*
X348505Y590430D01*
X348919Y589432D01*
X349576Y588576D01*
X350432Y587919D01*
X351430Y587505D01*
X352500Y587365D01*
X353570Y587505D01*
X354568Y587919D01*
X355424Y588576D01*
X356081Y589432D01*
X356494Y590430D01*
X356635Y591500D01*
X356494Y592570D01*
X356081Y593568D01*
X355424Y594424D01*
X354568Y595081D01*
X353570Y595495D01*
X352500Y595635D01*
D02*
G37*
G36*
X353000Y585973D02*
Y582000D01*
X356973D01*
X356884Y582675D01*
X356431Y583769D01*
X355709Y584709D01*
X354769Y585431D01*
X353675Y585884D01*
X353000Y585973D01*
D02*
G37*
G36*
X352000D02*
X351325Y585884D01*
X350231Y585431D01*
X349291Y584709D01*
X348569Y583769D01*
X348116Y582675D01*
X348027Y582000D01*
X352000D01*
Y585973D01*
D02*
G37*
G36*
X357000Y477335D02*
X356298Y477196D01*
X355702Y476798D01*
X355304Y476202D01*
X355165Y475500D01*
X355230Y475172D01*
X353578Y473520D01*
X352687D01*
Y474872D01*
X348337D01*
Y470128D01*
X352687D01*
Y471480D01*
X354000D01*
X354390Y471558D01*
X354721Y471779D01*
X356672Y473730D01*
X357000Y473665D01*
X357702Y473804D01*
X358298Y474202D01*
X358696Y474798D01*
X358835Y475500D01*
X358696Y476202D01*
X358298Y476798D01*
X357702Y477196D01*
X357000Y477335D01*
D02*
G37*
G36*
X299500Y463627D02*
X298691Y463520D01*
X298038Y463250D01*
X295950D01*
Y457750D01*
X295950D01*
Y457250D01*
X295950D01*
Y455520D01*
X291150D01*
Y457250D01*
X291150D01*
Y457750D01*
X291150D01*
Y463250D01*
X289062D01*
X288409Y463520D01*
X287600Y463627D01*
X286791Y463520D01*
X286138Y463250D01*
X284050D01*
Y457750D01*
X284050D01*
Y457250D01*
X284050D01*
Y451750D01*
X286138D01*
X286791Y451480D01*
X287600Y451373D01*
X288409Y451480D01*
X289062Y451750D01*
X291150D01*
Y453480D01*
X295950D01*
Y451750D01*
X298038D01*
X298691Y451480D01*
X299500Y451373D01*
X300309Y451480D01*
X300962Y451750D01*
X303050D01*
Y457250D01*
X303050D01*
Y457750D01*
X303050D01*
Y459480D01*
X306569D01*
Y458128D01*
X310525D01*
Y462872D01*
X306569D01*
Y461520D01*
X303050D01*
Y463250D01*
X300962D01*
X300309Y463520D01*
X299500Y463627D01*
D02*
G37*
G36*
X387500Y455591D02*
X386829Y455502D01*
X386205Y455244D01*
X385668Y454832D01*
X385256Y454295D01*
X384998Y453671D01*
X384909Y453000D01*
X384998Y452329D01*
X385256Y451705D01*
X385668Y451168D01*
X386205Y450756D01*
X386829Y450498D01*
X387500Y450409D01*
X388171Y450498D01*
X388795Y450756D01*
X389332Y451168D01*
X389744Y451705D01*
X390002Y452329D01*
X390091Y453000D01*
X390002Y453671D01*
X389744Y454295D01*
X389332Y454832D01*
X388795Y455244D01*
X388171Y455502D01*
X387500Y455591D01*
D02*
G37*
G36*
X280872Y494072D02*
X276128D01*
Y493114D01*
X273594D01*
X273204Y493037D01*
X272873Y492815D01*
X271426Y491368D01*
X270872Y491598D01*
Y491687D01*
X266128D01*
Y490520D01*
X264984D01*
X264798Y490798D01*
X264202Y491196D01*
X263500Y491335D01*
X262798Y491196D01*
X262202Y490798D01*
X261804Y490202D01*
X261665Y489500D01*
X261804Y488798D01*
X262202Y488202D01*
X262798Y487804D01*
X263500Y487665D01*
X264202Y487804D01*
X264798Y488202D01*
X264984Y488480D01*
X266128D01*
Y487337D01*
X270872D01*
Y488492D01*
X271012D01*
X271402Y488570D01*
X271733Y488791D01*
X274017Y491075D01*
X276128D01*
Y490117D01*
X280872D01*
Y490721D01*
X284018D01*
Y489959D01*
X289155D01*
Y493521D01*
X284018D01*
Y492760D01*
X280872D01*
Y494072D01*
D02*
G37*
G36*
X289155Y486041D02*
X284018D01*
Y484925D01*
X280372D01*
Y485884D01*
X275628D01*
Y481928D01*
X280372D01*
Y482886D01*
X284018D01*
Y482479D01*
X289155D01*
Y486041D01*
D02*
G37*
G36*
X270872Y486175D02*
X266128D01*
Y481825D01*
X269233D01*
X273779Y477279D01*
X274110Y477058D01*
X274500Y476980D01*
X275628D01*
Y476022D01*
X280372D01*
Y476980D01*
X283516D01*
X283702Y476702D01*
X284298Y476304D01*
X285000Y476165D01*
X285702Y476304D01*
X286298Y476702D01*
X286696Y477298D01*
X286835Y478000D01*
X286696Y478702D01*
X286298Y479298D01*
X285702Y479696D01*
X285000Y479835D01*
X284298Y479696D01*
X283702Y479298D01*
X283516Y479020D01*
X280372D01*
Y479978D01*
X275628D01*
Y479020D01*
X274922D01*
X270872Y483070D01*
Y486175D01*
D02*
G37*
G36*
X249698Y448147D02*
X242199D01*
Y438680D01*
X249698D01*
Y448147D01*
D02*
G37*
G36*
X307572Y435331D02*
X305300D01*
Y433256D01*
X307572D01*
Y435331D01*
D02*
G37*
G36*
X316272D02*
X314000D01*
Y433256D01*
X316272D01*
Y435331D01*
D02*
G37*
G36*
X267000Y463335D02*
X266298Y463196D01*
X265702Y462798D01*
X265304Y462202D01*
X265165Y461500D01*
X265304Y460798D01*
X265702Y460202D01*
X266298Y459804D01*
X267000Y459665D01*
X267282Y459721D01*
X269069Y457933D01*
Y454828D01*
X270224D01*
Y451372D01*
X269069D01*
Y446628D01*
X273419D01*
Y451372D01*
X272264D01*
Y454828D01*
X273419D01*
Y459572D01*
X270314D01*
X268761Y461125D01*
X268835Y461500D01*
X268696Y462202D01*
X268298Y462798D01*
X267702Y463196D01*
X267000Y463335D01*
D02*
G37*
G36*
X389000Y587641D02*
X388181Y587478D01*
X387486Y587014D01*
X387022Y586319D01*
X386859Y585500D01*
X387022Y584681D01*
X387486Y583986D01*
X387980Y583656D01*
Y484422D01*
X359279Y455721D01*
X359058Y455390D01*
X358980Y455000D01*
Y448484D01*
X358702Y448298D01*
X358304Y447702D01*
X358165Y447000D01*
X358304Y446298D01*
X358702Y445702D01*
X359298Y445304D01*
X360000Y445165D01*
X360702Y445304D01*
X361298Y445702D01*
X361696Y446298D01*
X361835Y447000D01*
X361696Y447702D01*
X361298Y448298D01*
X361020Y448484D01*
Y454578D01*
X389721Y483279D01*
X389942Y483610D01*
X390020Y484000D01*
Y583656D01*
X390514Y583986D01*
X390978Y584681D01*
X391141Y585500D01*
X390978Y586319D01*
X390514Y587014D01*
X389819Y587478D01*
X389000Y587641D01*
D02*
G37*
G36*
X387500Y447717D02*
X386829Y447628D01*
X386205Y447370D01*
X385668Y446958D01*
X385256Y446421D01*
X384998Y445796D01*
X384909Y445126D01*
X384998Y444455D01*
X385112Y444180D01*
X381086Y440153D01*
X330423D01*
X330103Y440926D01*
X329534Y441668D01*
X328792Y442237D01*
X327927Y442595D01*
X327000Y442717D01*
X326073Y442595D01*
X325208Y442237D01*
X324466Y441668D01*
X323897Y440926D01*
X323539Y440061D01*
X323417Y439134D01*
X323539Y438206D01*
X323897Y437342D01*
X324466Y436600D01*
X325208Y436030D01*
X326073Y435673D01*
X327000Y435550D01*
X327927Y435673D01*
X328792Y436030D01*
X329534Y436600D01*
X330103Y437342D01*
X330423Y438114D01*
X381508D01*
X381898Y438192D01*
X382229Y438413D01*
X386554Y442738D01*
X386829Y442624D01*
X387500Y442535D01*
X388171Y442624D01*
X388795Y442882D01*
X389332Y443294D01*
X389744Y443831D01*
X390002Y444455D01*
X390091Y445126D01*
X390002Y445796D01*
X389744Y446421D01*
X389332Y446958D01*
X388795Y447370D01*
X388171Y447628D01*
X387500Y447717D01*
D02*
G37*
G36*
X352959Y500155D02*
X352359Y500155D01*
X349641D01*
X349219Y500155D01*
X348619Y500155D01*
X345479D01*
Y497247D01*
X344523Y496292D01*
X344302Y495961D01*
X344225Y495571D01*
Y487372D01*
X343069D01*
Y482628D01*
X344225D01*
Y478500D01*
Y474872D01*
X342825D01*
Y470128D01*
X343980D01*
Y469422D01*
X335578Y461020D01*
X330423D01*
X330103Y461792D01*
X329534Y462534D01*
X328792Y463103D01*
X327927Y463461D01*
X327000Y463583D01*
X326073Y463461D01*
X325208Y463103D01*
X324466Y462534D01*
X323897Y461792D01*
X323577Y461020D01*
X316431D01*
Y462872D01*
X312475D01*
Y458128D01*
X316431D01*
Y458980D01*
X323577D01*
X323897Y458208D01*
X324466Y457466D01*
X325208Y456897D01*
X326073Y456539D01*
X327000Y456417D01*
X327927Y456539D01*
X328792Y456897D01*
X329534Y457466D01*
X330103Y458208D01*
X330423Y458980D01*
X336000D01*
X336390Y459058D01*
X336721Y459279D01*
X345721Y468279D01*
X345942Y468610D01*
X346020Y469000D01*
Y470128D01*
X347175D01*
Y474872D01*
X346264D01*
Y477480D01*
X352000D01*
X352390Y477558D01*
X352721Y477779D01*
X358721Y483779D01*
X358942Y484110D01*
X359020Y484500D01*
Y494327D01*
X358942Y494717D01*
X358721Y495048D01*
X356521Y497247D01*
Y500155D01*
X352959Y500155D01*
D02*
G37*
G36*
X360256Y530835D02*
X359554Y530696D01*
X358958Y530298D01*
X358560Y529702D01*
X358421Y529000D01*
X358560Y528298D01*
X358958Y527702D01*
X359236Y527516D01*
Y522372D01*
X358081D01*
Y517628D01*
X362431D01*
Y522372D01*
X361276D01*
Y527516D01*
X361554Y527702D01*
X361951Y528298D01*
X362091Y529000D01*
X361951Y529702D01*
X361554Y530298D01*
X360958Y530696D01*
X360256Y530835D01*
D02*
G37*
G36*
X357319Y519500D02*
X355244D01*
Y517228D01*
X357319D01*
Y519500D01*
D02*
G37*
G36*
X354244D02*
X352169D01*
Y517228D01*
X354244D01*
Y519500D01*
D02*
G37*
G36*
X347000Y522650D02*
X345516D01*
Y520968D01*
X347000D01*
Y522650D01*
D02*
G37*
G36*
X357319Y522772D02*
X355244D01*
Y520500D01*
X357319D01*
Y522772D01*
D02*
G37*
G36*
X354244D02*
X352169D01*
Y520500D01*
X354244D01*
Y522772D01*
D02*
G37*
G36*
X347500Y520469D02*
D01*
Y519969D01*
X345516D01*
Y518287D01*
X345916D01*
Y514750D01*
X346480D01*
Y510982D01*
X345479D01*
Y505845D01*
X349041D01*
Y510982D01*
X348520D01*
Y514750D01*
X349084D01*
Y518287D01*
X349484D01*
Y519969D01*
X347500D01*
Y520469D01*
D02*
G37*
G36*
X356921Y507913D02*
X355240D01*
Y505445D01*
X356921D01*
Y507913D01*
D02*
G37*
G36*
X354240D02*
X352559D01*
Y505445D01*
X354240D01*
Y507913D01*
D02*
G37*
G36*
X256372Y532072D02*
X251628D01*
Y528117D01*
X252980D01*
Y522550D01*
X250750D01*
Y520462D01*
X250480Y519809D01*
X250373Y519000D01*
X250480Y518191D01*
X250750Y517538D01*
Y515450D01*
X252480D01*
Y510650D01*
X250750D01*
Y508562D01*
X250480Y507909D01*
X250373Y507100D01*
X250480Y506291D01*
X250750Y505638D01*
Y503550D01*
X256250D01*
Y503550D01*
X256750D01*
Y503550D01*
X262250D01*
Y505638D01*
X262433Y506080D01*
X268190D01*
X268439Y505480D01*
X258279Y495321D01*
X258058Y494990D01*
X257980Y494600D01*
Y481000D01*
X258058Y480610D01*
X258279Y480279D01*
X267779Y470779D01*
X268110Y470558D01*
X268500Y470480D01*
X289500D01*
X289890Y470558D01*
X290221Y470779D01*
X298134Y478692D01*
X298355Y479023D01*
X298433Y479413D01*
Y482479D01*
X299982D01*
Y485619D01*
X299982Y486041D01*
X299982Y486556D01*
X300406Y486980D01*
X302628D01*
Y486825D01*
X303980D01*
Y483484D01*
X303702Y483298D01*
X303304Y482702D01*
X303165Y482000D01*
X303304Y481298D01*
X303702Y480702D01*
X304298Y480304D01*
X305000Y480165D01*
X305702Y480304D01*
X306298Y480702D01*
X306696Y481298D01*
X306835Y482000D01*
X306696Y482702D01*
X306298Y483298D01*
X306020Y483484D01*
Y486825D01*
X307372D01*
Y489914D01*
X307926Y490144D01*
X317980Y480090D01*
Y474484D01*
X317702Y474298D01*
X317304Y473702D01*
X317165Y473000D01*
X317304Y472298D01*
X317702Y471702D01*
X318298Y471304D01*
X319000Y471165D01*
X319702Y471304D01*
X320298Y471702D01*
X320696Y472298D01*
X320835Y473000D01*
X320696Y473702D01*
X320298Y474298D01*
X320020Y474484D01*
Y480512D01*
X319942Y480902D01*
X319721Y481233D01*
X307372Y493582D01*
Y496687D01*
X302628D01*
Y495531D01*
X300185D01*
X299795Y495454D01*
X299464Y495233D01*
X297753Y493521D01*
X294845D01*
Y489959D01*
X294845D01*
Y489781D01*
X294845D01*
Y486641D01*
X294845Y486219D01*
X294845Y485619D01*
Y482479D01*
X296394D01*
Y479836D01*
X289078Y472520D01*
X268922D01*
X260020Y481422D01*
Y494178D01*
X269392Y503550D01*
X274250D01*
Y503550D01*
X274750D01*
Y503550D01*
X277480D01*
Y499978D01*
X276128D01*
Y496022D01*
X280872D01*
Y499978D01*
X279520D01*
Y503550D01*
X280250D01*
Y505638D01*
X280520Y506291D01*
X280627Y507100D01*
X280520Y507909D01*
X280250Y508562D01*
Y510650D01*
X274750D01*
Y510650D01*
X274250D01*
Y510650D01*
X272520D01*
Y515450D01*
X274250D01*
Y515450D01*
X274750D01*
Y515450D01*
X280250D01*
Y517538D01*
X280520Y518191D01*
X280627Y519000D01*
X280520Y519809D01*
X280250Y520462D01*
Y522550D01*
X274750D01*
Y522550D01*
X274250D01*
Y522550D01*
X268750D01*
Y520462D01*
X268480Y519809D01*
X268373Y519000D01*
X268480Y518191D01*
X268750Y517538D01*
Y515450D01*
X270480D01*
Y510650D01*
X268750D01*
Y508562D01*
X268567Y508120D01*
X262433D01*
X262250Y508562D01*
Y510650D01*
X256750D01*
Y510650D01*
X256250D01*
Y510650D01*
X254520D01*
Y515450D01*
X256250D01*
Y515450D01*
X256750D01*
Y515450D01*
X262250D01*
Y517538D01*
X262520Y518191D01*
X262627Y519000D01*
X262520Y519809D01*
X262250Y520462D01*
Y522550D01*
X256750D01*
Y522550D01*
X256250D01*
Y522550D01*
X255020D01*
Y528117D01*
X256372D01*
Y532072D01*
D02*
G37*
G36*
X356921Y511382D02*
X355240D01*
Y508913D01*
X356921D01*
Y511382D01*
D02*
G37*
G36*
X354240D02*
X352559D01*
Y508913D01*
X354240D01*
Y511382D01*
D02*
G37*
%LPD*%
D10*
X271244Y457200D02*
D03*
X276756D02*
D03*
X271244Y449000D02*
D03*
X276756D02*
D03*
X350512Y472500D02*
D03*
X345000D02*
D03*
X350756Y485000D02*
D03*
X345244D02*
D03*
X360256Y520000D02*
D03*
X354744D02*
D03*
X236744Y377000D02*
D03*
X242256D02*
D03*
X369256Y313000D02*
D03*
X363744D02*
D03*
D11*
X283000Y428000D02*
D03*
D12*
X288906Y418650D02*
D03*
X286937D02*
D03*
X284968D02*
D03*
X283000D02*
D03*
X281031D02*
D03*
X279063D02*
D03*
X277095D02*
D03*
Y437350D02*
D03*
X279063D02*
D03*
X281031D02*
D03*
X283000D02*
D03*
X284968D02*
D03*
X286937D02*
D03*
X288906D02*
D03*
D13*
X273650Y422094D02*
D03*
Y424063D02*
D03*
Y426031D02*
D03*
Y428000D02*
D03*
Y429969D02*
D03*
Y431937D02*
D03*
Y433906D02*
D03*
X292350D02*
D03*
Y431937D02*
D03*
Y429969D02*
D03*
Y428000D02*
D03*
Y426031D02*
D03*
Y424063D02*
D03*
Y422094D02*
D03*
D14*
X278000Y478000D02*
D03*
Y483906D02*
D03*
X278500Y498000D02*
D03*
Y492095D02*
D03*
X254000Y536000D02*
D03*
Y530094D02*
D03*
X370000Y355047D02*
D03*
Y360953D02*
D03*
X370000Y381594D02*
D03*
Y387500D02*
D03*
Y408595D02*
D03*
Y414500D02*
D03*
X367500Y328953D02*
D03*
Y323047D02*
D03*
D15*
X268500Y484000D02*
D03*
Y489512D02*
D03*
X304800Y427244D02*
D03*
Y432756D02*
D03*
X313500Y427244D02*
D03*
Y432756D02*
D03*
X305000Y489000D02*
D03*
Y494512D02*
D03*
X376000Y336000D02*
D03*
Y330488D02*
D03*
X256000Y357744D02*
D03*
Y363256D02*
D03*
X377000Y319756D02*
D03*
Y314244D02*
D03*
D16*
X347260Y497587D02*
D03*
X351000D02*
D03*
X354740D02*
D03*
Y508413D02*
D03*
X347260D02*
D03*
D17*
X269953Y400500D02*
D03*
X264047D02*
D03*
X264595Y406000D02*
D03*
X270500D02*
D03*
X242847Y328500D02*
D03*
X248753D02*
D03*
X261753Y322500D02*
D03*
X255847D02*
D03*
X261753Y328500D02*
D03*
X255847D02*
D03*
X274953Y313000D02*
D03*
X269047D02*
D03*
X274905Y319000D02*
D03*
X269000D02*
D03*
X274453Y334000D02*
D03*
X268547D02*
D03*
X364453Y354000D02*
D03*
X358547D02*
D03*
X274406Y350000D02*
D03*
X268500D02*
D03*
X274000Y344500D02*
D03*
X268094D02*
D03*
X314453Y460500D02*
D03*
X308547D02*
D03*
D18*
X275000Y383276D02*
D03*
X271063Y392724D02*
D03*
X278937D02*
D03*
X258000Y383776D02*
D03*
X254063Y393224D02*
D03*
X261937D02*
D03*
D19*
X315500Y339500D02*
D03*
D20*
X281114Y309051D02*
D03*
Y314051D02*
D03*
Y319051D02*
D03*
Y324051D02*
D03*
Y329051D02*
D03*
Y334051D02*
D03*
Y339051D02*
D03*
Y344051D02*
D03*
Y349051D02*
D03*
Y354051D02*
D03*
Y359051D02*
D03*
Y364051D02*
D03*
Y369051D02*
D03*
Y374051D02*
D03*
X294122Y379917D02*
D03*
X299122D02*
D03*
X304122D02*
D03*
X309122D02*
D03*
X314122D02*
D03*
X319122D02*
D03*
X324122D02*
D03*
X329122D02*
D03*
X334122D02*
D03*
X339122D02*
D03*
X352114Y374051D02*
D03*
Y369051D02*
D03*
Y364051D02*
D03*
Y359051D02*
D03*
Y354051D02*
D03*
Y349051D02*
D03*
Y344051D02*
D03*
Y339051D02*
D03*
Y334051D02*
D03*
Y329051D02*
D03*
Y324051D02*
D03*
Y319051D02*
D03*
Y314051D02*
D03*
Y309051D02*
D03*
D21*
X246539Y436327D02*
D03*
Y433768D02*
D03*
Y431209D02*
D03*
Y428650D02*
D03*
Y426090D02*
D03*
D22*
X245949Y419004D02*
D03*
Y443413D02*
D03*
D23*
X236500Y446169D02*
D03*
Y416248D02*
D03*
D24*
Y436917D02*
D03*
Y425500D02*
D03*
D25*
X347500Y520469D02*
D03*
Y516532D02*
D03*
D26*
X297413Y484260D02*
D03*
Y488000D02*
D03*
Y491740D02*
D03*
X286587D02*
D03*
Y484260D02*
D03*
D27*
X387500Y315185D02*
D03*
Y325815D02*
D03*
D28*
X239032Y356887D02*
D03*
X241000D02*
D03*
X242969D02*
D03*
X239032Y366000D02*
D03*
X241000D02*
D03*
X242969D02*
D03*
D29*
X246512Y358364D02*
D03*
Y360332D02*
D03*
Y362301D02*
D03*
Y364269D02*
D03*
X235488D02*
D03*
Y362301D02*
D03*
Y360332D02*
D03*
Y358364D02*
D03*
D30*
X315500Y339500D02*
X345949Y309051D01*
X285051D02*
X315500Y339500D01*
X257744Y363256D02*
X262000Y359000D01*
X360256Y520000D02*
Y529000D01*
X267000Y461444D02*
Y461500D01*
Y461444D02*
X271244Y457200D01*
X256000Y353000D02*
X257196Y351804D01*
X256000Y353000D02*
Y357744D01*
X261000Y349500D02*
X262000Y350500D01*
Y355500D01*
X262800Y356300D01*
X286500Y408000D02*
X288906Y410405D01*
X278058Y408000D02*
X286500D01*
X275558Y410500D02*
X278058Y408000D01*
X269094Y410500D02*
X275558D01*
X280000Y411674D02*
X283000Y414674D01*
X280000Y411000D02*
Y411674D01*
X285000Y412000D02*
Y418618D01*
X284968Y418650D02*
X285000Y418618D01*
X274500Y443500D02*
X276756Y445756D01*
X264500Y443500D02*
X274500D01*
X257327Y436327D02*
X264500Y443500D01*
X261500Y359000D02*
X262000D01*
X264500Y357889D02*
Y361500D01*
X262911Y356300D02*
X264500Y357889D01*
X258000Y368000D02*
X264500Y361500D01*
X262800Y356300D02*
X262911D01*
X256000Y363256D02*
X257744D01*
X339122Y379917D02*
X345705Y386500D01*
X268488Y489500D02*
X268500Y489512D01*
X263500Y489500D02*
X268488D01*
X259000Y494600D02*
X271500Y507100D01*
X259000Y481000D02*
Y494600D01*
Y481000D02*
X268500Y471500D01*
X251500Y488000D02*
X253000Y489500D01*
X251500Y479000D02*
Y488000D01*
Y479000D02*
X263000Y467500D01*
X271500D01*
X276756Y462244D01*
Y457200D02*
Y462244D01*
X364453Y354000D02*
X365000Y354547D01*
Y359000D01*
X363500Y360500D02*
X365000Y359000D01*
X363500Y365500D02*
Y366500D01*
X357051Y359051D02*
X363500Y365500D01*
X352114Y359051D02*
X357051D01*
X352114Y369051D02*
X366449D01*
X370000Y365500D01*
Y360953D02*
Y365500D01*
X342500Y354500D02*
X346500Y358500D01*
X342500Y338000D02*
Y354500D01*
X251500Y340500D02*
X256500Y335500D01*
X249000Y340500D02*
X251500D01*
X248000Y347000D02*
X249000D01*
X242969Y352031D02*
X248000Y347000D01*
X249000Y350000D02*
X252500D01*
X246512Y352488D02*
X249000Y350000D01*
X242969Y352031D02*
Y356887D01*
X360000Y447000D02*
Y455000D01*
X389000Y484000D01*
Y585500D01*
X352114Y364051D02*
X352563Y364500D01*
X358000D01*
X354000Y472500D02*
X357000Y475500D01*
X350512Y472500D02*
X354000D01*
X358000Y484500D02*
Y494327D01*
X352000Y478500D02*
X358000Y484500D01*
X345244Y478500D02*
X352000D01*
X354740Y497587D02*
X358000Y494327D01*
X354000Y460000D02*
X377500Y483500D01*
Y590500D01*
X380000Y593000D01*
X389000D01*
X354276Y520469D02*
X354744Y520000D01*
X347500Y520469D02*
X354276D01*
X354740Y519996D02*
X354744Y520000D01*
X354740Y508413D02*
Y519996D01*
X347260Y508413D02*
X347500Y508653D01*
Y516532D01*
X352500Y601500D02*
X353500Y600500D01*
X247000Y543000D02*
Y547000D01*
Y543000D02*
X254000Y536000D01*
X268500Y471500D02*
X289500D01*
X297413Y479413D01*
Y484260D01*
X305000Y482000D02*
Y489000D01*
X278000Y478000D02*
X285000D01*
X268500Y484000D02*
X274500Y478000D01*
X278000D01*
X277500Y507100D02*
X278500Y506100D01*
Y498000D02*
Y506100D01*
X273594Y492095D02*
X278500D01*
X271012Y489512D02*
X273594Y492095D01*
X268500Y489512D02*
X271012D01*
X278500Y492095D02*
X278854Y491740D01*
X286587D01*
X286232Y483906D02*
X286587Y484260D01*
X278000Y483906D02*
X286232D01*
X319000Y473000D02*
Y480512D01*
X305000Y494512D02*
X319000Y480512D01*
X300185Y494512D02*
X305000D01*
X297413Y491740D02*
X300185Y494512D01*
X304000Y488000D02*
X305000Y489000D01*
X297413Y488000D02*
X304000D01*
X308547Y460500D02*
X308547Y460500D01*
X299500Y460500D02*
X308547D01*
X271244Y449000D02*
Y457200D01*
X236744Y377000D02*
Y386744D01*
X255847Y328500D02*
X255847Y328500D01*
X248753Y328500D02*
X255847D01*
X281114Y309051D02*
X285051D01*
X357449D02*
X358000Y308500D01*
X352114Y309051D02*
X357449D01*
X345949D02*
X352114D01*
X369256Y313000D02*
Y318244D01*
X367500Y320000D02*
X369256Y318244D01*
X367500Y320000D02*
Y323047D01*
X387500Y332500D02*
X391000Y336000D01*
X387500Y325815D02*
Y332500D01*
X376000Y336000D02*
X382000Y342000D01*
X377000Y319756D02*
Y320000D01*
X382815Y325815D01*
X387500D01*
X313500Y427244D02*
X319756D01*
X284968Y426031D02*
X292350D01*
X283000Y428000D02*
X284968Y426031D01*
X246539Y426090D02*
X254909D01*
X352114Y334051D02*
X352165Y334000D01*
X360500D01*
X352114Y339051D02*
X352165Y339000D01*
X363500D01*
X264800Y579000D02*
Y604000D01*
X352114Y344051D02*
X352165Y344000D01*
X360500D01*
X246512Y364269D02*
X250242Y368000D01*
X258000D01*
X253000Y360744D02*
X256000Y357744D01*
X258500Y340000D02*
X264500Y334000D01*
X268547D01*
X246512Y352488D02*
Y358364D01*
X250500Y314000D02*
X251500Y313000D01*
X269047D01*
X268500Y350000D02*
Y361500D01*
X258000Y372000D02*
X268500Y361500D01*
X249500Y372000D02*
X258000D01*
X232000Y367500D02*
X233500Y369000D01*
X232000Y363500D02*
Y367500D01*
Y363500D02*
X233199Y362301D01*
X235488D01*
Y364269D02*
Y366488D01*
X236500Y367500D01*
Y370000D01*
X233000Y373500D02*
X236500Y370000D01*
X236744Y373287D02*
Y377000D01*
Y373287D02*
X239032Y371000D01*
Y366000D02*
Y371000D01*
X235289Y362500D02*
X235488Y362301D01*
X233000Y373500D02*
Y382500D01*
X269953Y400500D02*
X270453Y400000D01*
X275000D01*
X255347Y323000D02*
X255847Y322500D01*
X244000Y323000D02*
X255347D01*
X242847Y328500D02*
X243500Y329153D01*
Y337000D01*
X283000Y414674D02*
Y418650D01*
X288906Y410405D02*
Y418650D01*
X304800Y432756D02*
X313500D01*
X300056Y437500D02*
X304800Y432756D01*
X297500Y437500D02*
X300056D01*
X293905Y433906D02*
X297500Y437500D01*
X292350Y433906D02*
X293905D01*
X276756Y449000D02*
Y457200D01*
X351000Y491415D02*
Y497587D01*
Y485244D02*
Y491415D01*
X350756Y485000D02*
X351000Y485244D01*
X345244Y478500D02*
Y485000D01*
Y472744D02*
Y478500D01*
Y495571D02*
X347260Y497587D01*
X345244Y485000D02*
Y495571D01*
X345000Y472500D02*
X345244Y472744D01*
X345000Y469000D02*
Y472500D01*
X336000Y460000D02*
X345000Y469000D01*
X327000Y460000D02*
X336000D01*
X314453Y460500D02*
X314953Y460000D01*
X327000D01*
Y439134D02*
X381508D01*
X387500Y445126D01*
X253500Y519000D02*
X254000Y519500D01*
Y530094D01*
X253500Y519000D02*
X259500D01*
X253500Y507100D02*
Y519000D01*
X259500Y507100D02*
X271500D01*
Y519000D02*
X277500D01*
X271500Y507100D02*
Y519000D01*
X287600Y454500D02*
Y460500D01*
Y454500D02*
X299500D01*
X298500Y431000D02*
Y434000D01*
X276756Y449000D02*
X281500D01*
X288906Y441595D01*
Y437350D02*
Y441595D01*
X299000Y428000D02*
X300000Y429000D01*
X292350Y428000D02*
X299000D01*
X297468Y429969D02*
X298500Y431000D01*
X292350Y429969D02*
X297468D01*
X292350Y431937D02*
Y433906D01*
X303587Y426031D02*
X304800Y427244D01*
X292350Y426031D02*
X303587D01*
X275000Y413500D02*
X278500D01*
X281031Y416032D01*
Y418650D01*
X275000Y383276D02*
X287224D01*
X290000Y380500D01*
Y373000D02*
Y380500D01*
X264595Y406000D02*
X269094Y410500D01*
X258500Y406000D02*
X264595D01*
X270500D02*
X276000D01*
X269953Y395547D02*
Y400500D01*
X264047Y397335D02*
Y400500D01*
X258000Y383776D02*
Y385776D01*
Y380500D02*
Y383776D01*
X278874Y394500D02*
Y403126D01*
X269953Y395547D02*
X271000Y394500D01*
X261937Y395224D02*
X264047Y397335D01*
X254063Y395224D02*
Y401563D01*
X352114Y319051D02*
X357551D01*
X338949D02*
X352114D01*
X332500Y325500D02*
X338949Y319051D01*
X332500Y325500D02*
Y357500D01*
X322000Y368000D02*
X332500Y357500D01*
X295000Y368000D02*
X322000D01*
X290000Y373000D02*
X295000Y368000D01*
X264449Y374051D02*
X281114D01*
X258000Y380500D02*
X264449Y374051D01*
X242256Y377000D02*
X242969Y376287D01*
Y366000D02*
Y376287D01*
X246000Y344500D02*
X268094D01*
X241000Y349500D02*
X246000Y344500D01*
X241000Y349500D02*
Y356887D01*
X240500Y319000D02*
X269000D01*
X234000Y325500D02*
X240500Y319000D01*
X234000Y325500D02*
Y339500D01*
X239032Y344531D01*
Y356887D01*
X246512Y360332D02*
Y362301D01*
Y360332D02*
X246924Y360744D01*
X253000D01*
X239032Y366000D02*
X241000D01*
X276000Y406000D02*
X278874Y403126D01*
X254063Y401563D02*
X258500Y406000D01*
X304800Y427244D02*
X313500D01*
X276756Y445756D02*
Y449000D01*
X246539Y436327D02*
X257327D01*
X246539Y433768D02*
X256768D01*
X246539Y431209D02*
X260291D01*
X334122Y379917D02*
Y389622D01*
X338500Y394000D01*
X341000D01*
X361500Y414500D01*
X370000D01*
X381906Y408595D02*
X384500Y406000D01*
X370000Y408595D02*
X381906D01*
X382906Y381594D02*
X384000Y380500D01*
X370000Y381594D02*
X382906D01*
X352114Y374051D02*
X356551D01*
X370000Y387500D01*
X352114Y354051D02*
X352165Y354000D01*
X358547D01*
X382453Y355047D02*
X384500Y353000D01*
X370000Y355047D02*
X382453D01*
X363453Y328953D02*
X367500D01*
X361000Y326500D02*
X363453Y328953D01*
X361000Y322500D02*
Y326500D01*
X357551Y319051D02*
X361000Y322500D01*
X367500Y328953D02*
X371453D01*
X372988Y330488D01*
X376000D01*
X377000Y314244D02*
X381244D01*
X382185Y315185D01*
X387500D01*
X373244Y314244D02*
X377000D01*
X372000Y313000D02*
X373244Y314244D01*
X369256Y313000D02*
X372000D01*
X352114Y314051D02*
X356949D01*
X358000Y313000D01*
X363744D01*
X277949Y349051D02*
X281114D01*
X277000Y350000D02*
X277949Y349051D01*
X274406Y350000D02*
X277000D01*
X280665Y344500D02*
X281114Y344051D01*
X274000Y344500D02*
X280665D01*
X281063Y334000D02*
X281114Y334051D01*
X274453Y334000D02*
X281063D01*
X280563Y328500D02*
X281114Y329051D01*
X261753Y328500D02*
X280563D01*
X266051Y324051D02*
X281114D01*
X264500Y322500D02*
X266051Y324051D01*
X261753Y322500D02*
X264500D01*
X281063Y319000D02*
X281114Y319051D01*
X274905Y319000D02*
X281063D01*
X278051Y314051D02*
X281114D01*
X277000Y313000D02*
X278051Y314051D01*
X274953Y313000D02*
X277000D01*
D31*
X292843Y418157D02*
Y420520D01*
X290480Y418157D02*
X292843D01*
X273158D02*
X275520D01*
X273158D02*
Y420520D01*
Y435480D02*
Y437843D01*
X275520D01*
X290480D02*
X292843D01*
Y435480D02*
Y437843D01*
D32*
X286250Y621500D02*
D03*
X338750D02*
D03*
Y561500D02*
D03*
X286250D02*
D03*
D33*
X282500Y604000D02*
D03*
X264800D02*
D03*
X282500Y579000D02*
D03*
X264800D02*
D03*
D34*
X352500Y601500D02*
D03*
Y591500D02*
D03*
Y581500D02*
D03*
X322500Y551500D02*
D03*
X312500D02*
D03*
X302500D02*
D03*
D35*
X287600Y460500D02*
D03*
Y454500D02*
D03*
X299500D02*
D03*
Y460500D02*
D03*
D36*
X265300Y556000D02*
D03*
X359000D02*
D03*
D37*
X277500Y519000D02*
D03*
X271500D02*
D03*
Y507100D02*
D03*
X277500D02*
D03*
X259500Y519000D02*
D03*
X253500D02*
D03*
Y507100D02*
D03*
X259500D02*
D03*
D38*
X384500Y363000D02*
D03*
Y353000D02*
D03*
X384000Y390500D02*
D03*
Y380500D02*
D03*
X384500Y416000D02*
D03*
Y406000D02*
D03*
D39*
X387500Y445126D02*
D03*
Y453000D02*
D03*
D40*
X327000Y439134D02*
D03*
Y460000D02*
D03*
D41*
X389000Y600500D02*
D03*
Y593000D02*
D03*
Y585500D02*
D03*
D42*
X313000Y329500D02*
D03*
X317000D02*
D03*
X320500D02*
D03*
X324500D02*
D03*
X322000Y349500D02*
D03*
X310000D02*
D03*
X306000D02*
D03*
X314000D02*
D03*
X318000D02*
D03*
X325500D02*
D03*
X309500Y329500D02*
D03*
X306000D02*
D03*
X360256Y529000D02*
D03*
X267000Y461500D02*
D03*
X257196Y351804D02*
D03*
X261000Y349500D02*
D03*
X280000Y411000D02*
D03*
X285000Y412000D02*
D03*
X271500Y367000D02*
D03*
X261500Y359000D02*
D03*
X345705Y386500D02*
D03*
X263500Y489500D02*
D03*
X253000D02*
D03*
X363500Y360500D02*
D03*
X346500Y358500D02*
D03*
X363500Y366500D02*
D03*
X342500Y338000D02*
D03*
X256500Y335500D02*
D03*
X249000Y340500D02*
D03*
Y347000D02*
D03*
X252500Y350000D02*
D03*
X360000Y447000D02*
D03*
X358000Y364500D02*
D03*
X354000Y460000D02*
D03*
X357000Y475500D02*
D03*
X247000Y547000D02*
D03*
X305000Y482000D02*
D03*
X285000Y478000D02*
D03*
X319000Y473000D02*
D03*
X236744Y386744D02*
D03*
X358000Y308500D02*
D03*
X391000Y336000D02*
D03*
X382000Y342000D02*
D03*
X319756Y427244D02*
D03*
X254909Y426090D02*
D03*
X360500Y334000D02*
D03*
X363500Y339000D02*
D03*
X360500Y344000D02*
D03*
X258500Y340000D02*
D03*
X250500Y314000D02*
D03*
X249500Y372000D02*
D03*
X233500Y369000D02*
D03*
X275000Y400000D02*
D03*
X244000Y323000D02*
D03*
X243500Y337000D02*
D03*
X275000Y413500D02*
D03*
X351000Y491415D02*
D03*
X260291Y431209D02*
D03*
X256768Y433768D02*
D03*
X300000Y429000D02*
D03*
X298500Y434000D02*
D03*
M02*
